{"glyphs":{"0":{"ha":806,"x_min":43,"x_max":785,"o":"m 785 667 q 727 308 785 464 q 568 69 669 151 q 328 -14 466 -14 q 116 71 190 -14 q 43 315 43 156 q 100 677 43 516 q 259 923 157 838 q 496 1007 361 1007 q 708 915 631 1007 q 785 667 785 823 m 465 793 q 391 719 429 793 q 331 528 354 644 q 307 310 307 412 q 318 225 307 250 q 358 200 329 200 q 434 263 398 200 q 495 444 469 327 q 521 677 521 562 q 465 793 521 793 z "},"1":{"ha":806,"x_min":102,"x_max":733,"o":"m 261 0 l 379 542 q 431 715 399 633 q 342 646 376 668 l 204 561 l 102 732 l 522 991 l 733 991 l 525 0 l 261 0 z "},"2":{"ha":806,"x_min":-39,"x_max":757,"o":"m 493 714 q 476 763 493 746 q 431 781 458 781 q 240 681 349 781 l 114 856 q 481 1006 273 1006 q 681 938 605 1006 q 757 755 757 871 q 697 562 757 652 q 496 349 638 471 l 357 229 l 357 221 l 689 221 l 643 0 l -39 0 l -3 174 l 325 469 q 493 714 493 619 z "},"3":{"ha":806,"x_min":9,"x_max":764,"o":"m 464 1006 q 682 943 600 1006 q 764 775 764 880 q 703 605 764 671 q 532 517 642 539 l 532 511 q 669 436 619 494 q 718 292 718 378 q 597 66 718 145 q 271 -14 476 -14 q 9 40 102 -14 l 9 265 q 265 197 122 197 q 405 229 358 197 q 452 319 452 260 q 411 390 449 373 q 262 410 373 408 l 205 410 l 241 607 l 294 607 q 449 638 393 607 q 505 725 505 670 q 480 775 505 756 q 414 794 456 794 q 231 737 334 794 l 123 905 q 288 983 209 960 q 464 1006 368 1006 z "},"4":{"ha":806,"x_min":-7,"x_max":789,"o":"m 621 192 l 581 0 l 325 0 l 366 192 l -7 192 l 28 366 l 545 991 l 789 991 l 663 392 l 764 392 l 722 192 l 621 192 m 407 392 l 440 524 q 481 667 461 602 l 475 667 q 397 550 441 602 l 265 392 l 407 392 z "},"5":{"ha":806,"x_min":14,"x_max":799,"o":"m 444 650 q 643 570 567 650 q 720 355 720 490 q 610 82 720 179 q 294 -14 501 -14 q 127 2 205 -14 q 14 43 50 17 l 14 262 q 136 214 68 231 q 261 197 204 197 q 449 328 449 197 q 415 411 449 379 q 322 443 380 443 q 246 436 285 443 q 184 421 207 429 l 102 484 l 248 991 l 799 991 l 753 772 l 433 772 l 393 647 q 444 650 414 650 z "},"6":{"ha":806,"x_min":53,"x_max":817,"o":"m 528 663 q 693 593 636 663 q 750 390 750 523 q 750 381 750 385 q 646 97 750 208 q 376 -14 542 -14 q 368 -14 372 -14 q 134 71 215 -14 q 53 319 53 155 q 71 492 53 389 q 273 882 129 758 q 659 1006 418 1006 q 817 985 730 1006 l 774 779 q 650 796 711 796 q 488 773 550 796 q 386 699 426 749 q 314 547 345 648 l 319 547 q 528 663 392 663 m 380 195 q 454 246 425 195 q 484 370 484 298 q 421 457 484 457 q 345 408 375 457 q 314 285 314 358 q 332 218 314 241 q 380 195 349 195 z "},"7":{"ha":806,"x_min":24,"x_max":867,"o":"m 510 770 l 121 770 l 168 991 l 867 991 l 832 835 l 328 0 l 24 0 l 510 770 z "},"8":{"ha":806,"x_min":33,"x_max":785,"o":"m 785 781 q 732 625 785 693 q 595 530 681 558 q 691 421 659 481 q 722 285 722 362 q 627 66 722 145 q 371 -14 531 -14 q 122 54 212 -14 q 33 229 33 121 q 258 513 33 433 q 153 722 153 595 q 153 728 153 725 q 245 928 153 848 q 487 1007 338 1007 q 492 1007 489 1007 q 706 944 628 1007 q 785 781 785 882 m 543 746 q 543 763 543 746 q 525 798 543 780 q 476 815 506 815 q 423 788 447 815 q 399 728 399 761 q 415 669 399 696 q 457 631 431 643 q 519 678 496 645 q 543 746 543 711 m 281 261 q 306 201 281 224 q 374 178 330 178 q 447 206 418 178 q 476 281 476 235 q 396 412 476 359 q 281 261 281 351 z "},"9":{"ha":806,"x_min":72,"x_max":771,"o":"m 296 326 q 134 400 194 326 q 74 602 74 475 q 74 606 74 604 q 174 895 74 783 q 445 1006 275 1006 q 449 1006 447 1006 q 688 912 605 1006 q 771 646 771 819 q 702 293 771 446 q 509 64 632 141 q 215 -14 385 -14 q 72 7 137 -14 l 72 220 q 210 195 133 195 q 407 253 336 195 q 505 444 477 312 l 500 444 q 411 354 460 381 q 296 326 362 326 m 456 798 q 373 749 407 798 q 340 632 340 701 q 403 534 340 534 q 488 582 453 534 q 522 699 522 629 q 504 770 522 743 q 456 798 485 798 z "}," ":{"ha":361,"x_min":0,"x_max":0,"o":""},"!":{"ha":422,"x_min":8,"x_max":479,"o":"m 85 350 l 191 991 l 479 991 l 307 350 l 85 350 m 8 86 q 52 202 8 159 q 174 244 96 244 q 264 217 233 244 q 296 139 296 189 q 253 24 296 65 q 135 -17 210 -17 q 41 9 75 -17 q 8 86 8 36 z "},"\"":{"ha":631,"x_min":123,"x_max":704,"o":"m 297 633 l 123 633 l 172 991 l 404 991 l 297 633 m 597 633 l 422 633 l 472 991 l 704 991 l 597 633 z "},"#":{"ha":897,"x_min":9,"x_max":921,"o":"m 685 428 l 850 428 l 836 267 l 637 267 l 562 0 l 379 0 l 456 267 l 342 267 l 265 0 l 82 0 l 158 267 l 9 267 l 24 428 l 204 428 l 243 564 l 83 564 l 97 728 l 290 728 l 366 991 l 549 991 l 473 728 l 587 728 l 663 991 l 846 991 l 771 728 l 921 728 l 907 564 l 724 564 l 685 428 m 501 428 l 541 564 l 427 564 l 387 428 l 501 428 z "},"$":{"ha":806,"x_min":41,"x_max":798,"o":"m 503 766 q 433 748 459 766 q 407 697 407 729 q 433 642 407 666 q 547 573 458 617 q 680 470 636 530 q 724 326 724 411 q 634 130 724 205 q 389 45 544 54 l 363 -82 l 249 -82 l 277 47 q 41 110 125 59 l 41 321 q 334 244 204 244 q 452 315 452 244 q 429 364 452 343 q 335 421 408 386 q 190 530 240 464 q 139 684 139 597 q 229 879 139 803 q 472 965 319 955 l 492 1055 l 606 1055 l 585 962 q 798 901 694 952 l 703 718 q 503 766 595 766 z "},"%":{"ha":1274,"x_min":54,"x_max":1234,"o":"m 357 1006 q 514 948 456 1006 q 571 783 571 890 q 532 582 571 675 q 425 435 494 488 q 269 383 356 383 q 109 439 163 383 q 54 602 54 495 q 54 607 54 604 q 136 894 54 782 q 351 1006 218 1006 q 357 1006 353 1006 m 372 0 l 171 0 l 909 991 l 1105 991 l 372 0 m 338 842 q 278 767 304 842 q 252 604 252 692 q 288 547 252 547 q 348 623 322 547 q 374 785 374 698 q 366 828 374 814 q 338 842 357 842 m 1019 608 q 1176 551 1119 608 q 1234 386 1234 493 q 1196 185 1234 279 q 1088 39 1158 91 q 932 -14 1019 -14 q 771 42 825 -14 q 717 204 717 98 q 717 210 717 207 q 799 496 717 385 q 1013 608 880 608 q 1019 608 1016 608 m 1000 444 q 940 369 966 444 q 914 207 914 294 q 950 150 914 150 q 1010 225 985 150 q 1036 387 1036 300 q 1028 431 1036 418 q 1000 444 1020 444 z "},"&":{"ha":1018,"x_min":5,"x_max":1010,"o":"m 358 -14 q 99 58 192 -14 q 5 261 5 130 q 65 440 5 369 q 249 553 125 512 q 208 634 224 584 q 192 722 192 684 q 277 931 192 856 q 518 1007 362 1007 q 724 947 647 1007 q 800 787 800 888 q 747 630 800 700 q 568 496 693 561 l 656 370 q 707 447 680 394 q 750 557 733 499 l 1010 557 q 923 350 979 448 q 794 178 867 252 l 924 0 l 624 0 l 595 41 q 358 -14 490 -14 m 561 770 q 546 811 561 794 q 501 828 530 828 q 451 804 472 828 q 431 735 431 781 q 465 643 431 689 q 561 770 561 684 m 271 288 q 303 220 271 245 q 387 195 335 195 q 481 212 438 195 l 350 401 q 271 288 271 366 z "},"'":{"ha":330,"x_min":123,"x_max":404,"o":"m 297 633 l 123 633 l 172 991 l 404 991 l 297 633 z "},"(":{"ha":519,"x_min":46,"x_max":612,"o":"m 46 221 q 131 642 46 446 q 393 1019 216 838 l 612 1019 q 352 630 437 829 q 268 210 268 430 q 290 -12 268 109 q 347 -220 313 -134 l 149 -220 q 75 -18 104 -140 q 46 221 46 104 z "},")":{"ha":519,"x_min":-90,"x_max":471,"o":"m 471 579 q 387 153 471 347 q 131 -220 303 -42 l -90 -220 q 166 167 83 -33 q 249 590 249 367 q 227 808 249 692 q 168 1019 205 924 l 368 1019 q 444 818 416 935 q 471 579 471 701 z "},"*":{"ha":753,"x_min":103,"x_max":787,"o":"m 538 799 l 787 819 l 772 615 l 562 643 l 663 432 l 469 374 l 415 579 l 302 414 l 134 539 l 306 694 l 103 751 l 171 940 l 387 828 l 408 1065 l 616 1023 l 538 799 z "},"+":{"ha":786,"x_min":69,"x_max":730,"o":"m 69 397 l 69 582 l 309 582 l 309 821 l 492 821 l 492 582 l 730 582 l 730 397 l 492 397 l 492 161 l 309 161 l 309 397 l 69 397 z "},",":{"ha":425,"x_min":-71,"x_max":298,"o":"m 293 161 l 298 146 q 125 -179 222 -26 l -71 -179 q 29 83 -35 -96 l 57 161 l 293 161 z "},"-":{"ha":457,"x_min":16,"x_max":433,"o":"m 58 478 l 433 478 l 390 267 l 16 267 l 58 478 z "},".":{"ha":425,"x_min":0,"x_max":288,"o":"m 0 86 q 44 202 0 160 q 165 244 88 244 q 255 217 223 244 q 288 139 288 189 q 247 21 288 59 q 118 -17 205 -17 q 32 9 63 -17 q 0 86 0 35 z "},"/":{"ha":648,"x_min":-61,"x_max":741,"o":"m 172 -14 l -61 -14 l 507 1006 l 741 1006 l 172 -14 z "},":":{"ha":425,"x_min":0,"x_max":419,"o":"m 132 621 q 176 736 132 694 q 296 778 220 778 q 386 751 353 778 q 419 673 419 725 q 379 554 419 592 q 250 517 339 517 q 164 543 195 517 q 132 621 132 569 m 0 86 q 44 202 0 160 q 165 244 88 244 q 255 217 223 244 q 288 139 288 189 q 247 21 288 59 q 118 -17 205 -17 q 32 9 63 -17 q 0 86 0 35 z "},";":{"ha":425,"x_min":-79,"x_max":419,"o":"m 132 621 q 176 736 132 694 q 296 778 220 778 q 386 751 353 778 q 419 673 419 725 q 379 554 419 592 q 250 517 339 517 q 164 543 195 517 q 132 621 132 569 m 285 161 l 290 146 q 117 -179 214 -26 l -79 -179 q 21 83 -33 -72 l 49 161 l 285 161 z "},"<":{"ha":786,"x_min":60,"x_max":720,"o":"m 60 425 l 60 542 l 720 886 l 720 684 l 329 492 l 720 321 l 720 119 l 60 425 z "},"=":{"ha":786,"x_min":69,"x_max":730,"o":"m 69 705 l 730 705 l 730 525 l 69 525 l 69 705 m 69 454 l 730 454 l 730 271 l 69 271 l 69 454 z "},">":{"ha":786,"x_min":74,"x_max":733,"o":"m 464 492 l 74 684 l 74 886 l 733 542 l 733 425 l 74 119 l 74 321 l 464 492 z "},"?":{"ha":677,"x_min":110,"x_max":720,"o":"m 464 749 q 403 796 464 796 q 191 722 317 796 l 110 914 q 422 1006 267 1006 q 639 945 559 1006 q 720 777 720 884 q 701 670 720 715 q 647 589 682 625 q 538 508 612 553 q 436 436 465 464 q 397 379 407 409 l 387 350 l 174 350 l 182 393 q 210 486 192 448 q 257 556 228 524 q 351 630 286 587 q 440 697 416 673 q 464 749 464 722 m 119 86 q 163 202 119 159 q 285 244 208 244 q 375 217 344 244 q 407 139 407 189 q 364 24 407 64 q 245 -17 321 -17 q 153 10 186 -17 q 119 86 119 37 z "},"@":{"ha":1246,"x_min":56,"x_max":1203,"o":"m 529 -126 q 279 -70 387 -126 q 114 94 172 -13 q 56 339 56 200 q 135 685 56 534 q 362 921 214 836 q 692 1006 511 1006 q 1067 888 932 1006 q 1203 561 1203 770 q 1156 348 1203 445 q 1026 195 1109 250 q 846 140 944 140 q 697 228 731 140 l 690 228 q 614 162 657 183 q 509 140 571 140 q 379 197 429 140 q 329 353 329 254 q 379 546 329 452 q 512 690 429 640 q 700 739 595 739 q 928 692 806 739 l 860 411 q 844 318 844 345 q 871 290 844 290 q 874 290 873 290 q 981 365 937 290 q 1025 553 1025 439 q 1025 557 1025 555 q 935 775 1025 701 q 675 850 844 850 q 447 787 549 850 q 289 613 345 725 q 233 355 233 500 q 233 349 233 352 q 315 119 233 208 q 522 29 397 29 q 526 29 524 29 q 686 46 597 29 q 851 93 776 63 l 851 -60 q 701 -107 791 -88 q 529 -126 610 -126 m 686 589 q 599 557 636 589 q 540 470 562 525 q 518 361 518 415 q 571 290 518 290 q 639 326 613 290 q 689 453 665 361 l 721 582 q 686 589 707 589 z "},"A":{"ha":939,"x_min":-82,"x_max":847,"o":"m 278 186 l 193 0 l -82 0 l 422 991 l 764 991 l 847 0 l 589 0 l 582 186 l 278 186 m 574 397 l 562 685 l 561 743 q 564 832 561 799 q 522 720 547 770 l 375 397 l 574 397 z "},"B":{"ha":880,"x_min":22,"x_max":861,"o":"m 562 991 q 785 936 709 991 q 861 775 861 880 q 660 519 861 579 l 660 514 q 755 444 720 494 q 790 325 790 395 q 687 85 790 170 q 393 0 583 0 l 22 0 l 232 991 l 562 991 m 465 611 q 556 637 526 611 q 586 720 586 663 q 500 789 586 789 l 457 789 l 416 611 l 465 611 m 387 207 q 485 240 446 207 q 524 321 524 273 q 500 393 524 370 q 422 415 477 415 l 376 415 l 332 207 l 387 207 z "},"C":{"ha":875,"x_min":71,"x_max":924,"o":"m 597 786 q 465 733 524 786 q 373 588 406 680 q 339 386 339 496 q 486 205 339 205 q 600 219 541 205 q 736 267 659 233 l 736 47 q 437 -14 598 -14 q 165 87 261 -14 q 71 370 71 188 q 139 702 71 552 q 326 930 208 852 q 597 1007 444 1007 q 924 918 777 1007 l 823 711 q 705 768 758 750 q 597 786 652 786 z "},"D":{"ha":950,"x_min":22,"x_max":907,"o":"m 514 991 q 804 893 701 991 q 907 616 907 795 q 907 609 907 613 q 840 287 907 425 q 645 74 772 148 q 348 0 517 0 q 342 0 345 0 l 22 0 l 232 991 l 514 991 m 388 220 q 516 267 458 220 q 606 402 574 315 q 639 598 639 490 q 639 603 639 601 q 603 731 639 687 q 500 775 566 775 l 452 775 l 335 220 l 382 220 q 388 220 385 220 z "},"E":{"ha":781,"x_min":22,"x_max":821,"o":"m 22 0 l 232 991 l 821 991 l 777 777 l 453 777 l 421 621 l 722 621 l 673 406 l 372 406 l 334 218 l 657 218 l 611 0 l 22 0 z "},"F":{"ha":790,"x_min":22,"x_max":817,"o":"m 22 0 l 232 991 l 817 991 l 771 777 l 452 777 l 412 587 l 708 587 l 661 371 l 364 371 l 288 0 l 22 0 z "},"G":{"ha":970,"x_min":71,"x_max":956,"o":"m 796 41 q 446 -14 627 -14 q 168 90 266 -14 q 71 378 71 193 q 145 709 71 563 q 350 931 220 854 q 656 1007 479 1007 q 956 935 832 1007 l 856 725 q 655 786 752 786 q 380 591 463 786 q 339 386 339 495 q 481 207 339 207 q 571 216 522 207 l 606 374 l 450 374 l 496 581 l 909 581 l 796 41 z "},"H":{"ha":991,"x_min":22,"x_max":999,"o":"m 524 0 l 608 404 l 374 404 l 288 0 l 22 0 l 232 991 l 497 991 l 421 624 l 657 624 l 733 991 l 999 991 l 789 0 l 524 0 z "},"I":{"ha":493,"x_min":21,"x_max":500,"o":"m 231 991 l 500 991 l 290 0 l 21 0 l 231 991 z "},"J":{"ha":518,"x_min":-222,"x_max":524,"o":"m -78 -313 q -222 -293 -149 -313 l -222 -77 q -104 -93 -155 -93 q 5 -53 -33 -93 q 62 79 43 -14 l 258 991 l 524 991 l 321 46 q 244 -166 291 -91 q 121 -277 197 -241 q -78 -313 45 -313 z "},"K":{"ha":929,"x_min":22,"x_max":1032,"o":"m 545 0 l 427 392 l 361 354 l 288 0 l 22 0 l 232 991 l 497 991 l 406 568 l 431 608 q 519 741 492 707 l 721 991 l 1032 991 l 659 534 l 842 0 l 545 0 z "},"L":{"ha":732,"x_min":22,"x_max":657,"o":"m 232 991 l 497 991 l 334 216 l 657 216 l 611 0 l 22 0 l 232 991 z "},"M":{"ha":1263,"x_min":22,"x_max":1270,"o":"m 399 711 l 393 711 q 335 364 345 412 l 258 0 l 22 0 l 232 991 l 583 991 l 583 288 l 589 288 l 913 991 l 1270 991 l 1057 0 l 819 0 l 899 372 q 972 668 932 526 l 982 711 l 977 711 l 650 0 l 399 0 l 399 711 z "},"N":{"ha":1097,"x_min":22,"x_max":1104,"o":"m 586 0 l 390 697 l 385 697 q 346 414 366 500 l 258 0 l 22 0 l 232 991 l 541 991 l 734 325 l 741 325 q 779 576 760 486 l 868 991 l 1104 991 l 895 0 l 586 0 z "},"O":{"ha":1023,"x_min":71,"x_max":981,"o":"m 608 1007 q 883 906 785 1007 q 981 625 981 806 q 913 295 981 444 q 727 66 846 146 q 452 -14 608 -14 q 170 87 269 -14 q 71 369 71 189 q 140 699 71 549 q 331 928 210 848 q 608 1007 451 1007 m 713 623 q 680 744 713 701 q 583 787 647 787 q 462 730 518 787 q 372 573 406 672 q 339 370 339 475 q 475 205 339 205 q 594 261 539 205 q 681 414 649 317 q 713 623 713 511 z "},"P":{"ha":865,"x_min":22,"x_max":848,"o":"m 485 991 q 754 915 661 991 q 848 694 848 838 q 732 426 848 524 q 414 329 615 329 l 355 329 l 288 0 l 22 0 l 232 991 l 485 991 m 446 546 q 546 586 508 546 q 583 686 583 625 q 559 751 583 727 q 492 775 534 775 l 452 775 l 403 546 l 446 546 z "},"Q":{"ha":1023,"x_min":71,"x_max":981,"o":"m 439 -14 q 167 87 264 -14 q 71 368 71 189 q 140 698 71 548 q 331 927 210 848 q 612 1007 453 1007 q 884 906 787 1007 q 981 620 981 804 q 903 280 981 435 q 693 50 826 124 l 854 -236 l 557 -236 l 447 -14 l 439 -14 m 713 628 q 585 785 713 785 q 463 729 520 785 q 372 576 405 673 q 339 366 339 479 q 371 249 339 288 q 467 210 403 210 q 589 264 532 210 q 679 416 646 318 q 713 628 713 513 z "},"R":{"ha":903,"x_min":22,"x_max":847,"o":"m 494 991 q 757 923 667 991 q 847 720 847 854 q 799 534 847 612 q 656 415 750 456 l 808 65 l 835 0 l 546 0 l 414 361 l 364 361 l 288 0 l 22 0 l 232 991 l 494 991 m 441 562 q 544 599 507 562 q 582 703 582 636 q 558 767 582 745 q 490 789 535 789 l 454 789 l 407 562 l 441 562 z "},"S":{"ha":761,"x_min":29,"x_max":775,"o":"m 486 791 q 419 772 443 791 q 396 719 396 753 q 418 654 396 684 q 505 578 444 624 q 624 453 586 518 q 663 304 663 387 q 563 70 663 155 q 285 -14 463 -14 q 29 52 127 -14 l 29 289 q 160 228 87 252 q 288 204 233 204 q 395 285 395 204 q 363 351 395 319 q 283 421 346 370 q 169 551 205 484 q 132 702 132 617 q 177 857 132 786 q 302 967 221 928 q 484 1006 382 1006 q 775 933 646 1006 l 684 732 q 486 791 568 791 z "},"T":{"ha":766,"x_min":106,"x_max":850,"o":"m 160 0 l 321 772 l 106 772 l 153 991 l 850 991 l 802 772 l 586 772 l 425 0 l 160 0 z "},"U":{"ha":974,"x_min":85,"x_max":983,"o":"m 384 -14 q 229 24 298 -14 q 122 128 159 62 q 85 273 85 194 q 85 278 85 275 q 93 366 85 321 l 228 991 l 493 991 l 361 372 q 351 294 351 325 q 433 208 351 208 q 533 251 496 208 q 589 386 570 294 l 718 991 l 983 991 l 848 359 q 696 78 808 169 q 390 -14 583 -14 q 384 -14 387 -14 z "},"V":{"ha":857,"x_min":102,"x_max":960,"o":"m 379 414 q 368 240 379 314 l 374 240 q 404 347 382 280 q 441 446 426 413 l 679 991 l 960 991 l 468 0 l 172 0 l 102 991 l 361 991 l 379 448 l 379 414 z "},"W":{"ha":1299,"x_min":103,"x_max":1417,"o":"m 876 991 l 876 454 q 859 240 876 351 l 949 475 l 1154 991 l 1417 991 l 986 0 l 673 0 l 673 420 q 682 640 673 530 q 602 404 659 548 l 431 0 l 136 0 l 103 991 l 354 991 l 347 494 q 330 240 343 311 l 357 311 l 421 468 l 648 991 l 876 991 z "},"X":{"ha":921,"x_min":-85,"x_max":1025,"o":"m 545 0 l 446 338 l 216 0 l -85 0 l 297 526 l 146 991 l 428 991 l 511 673 l 721 991 l 1025 991 l 660 500 l 838 0 l 545 0 z "},"Y":{"ha":839,"x_min":111,"x_max":953,"o":"m 657 991 l 953 991 l 538 385 l 456 0 l 191 0 l 272 385 l 111 991 l 385 991 l 446 624 l 657 991 z "},"Z":{"ha":749,"x_min":-62,"x_max":827,"o":"m -62 0 l -31 164 l 437 775 l 113 775 l 158 991 l 827 991 l 791 825 l 317 216 l 685 216 l 639 0 l -62 0 z "},"[":{"ha":500,"x_min":-36,"x_max":590,"o":"m -36 -233 l 231 1019 l 590 1019 l 553 847 l 407 847 l 214 -61 l 359 -61 l 323 -233 l -36 -233 z "},"\\":{"ha":648,"x_min":150,"x_max":528,"o":"m 528 -14 l 311 -14 l 150 1006 l 359 1006 l 528 -14 z "},"]":{"ha":500,"x_min":-90,"x_max":533,"o":"m 90 -61 l 283 847 l 138 847 l 175 1019 l 533 1019 l 267 -233 l -90 -233 l -54 -61 l 90 -61 z "},"^":{"ha":743,"x_min":-4,"x_max":733,"o":"m 424 991 l 541 991 l 733 340 l 547 340 l 441 726 l 197 340 l -4 340 l 424 991 z "},"_":{"ha":625,"x_min":-125,"x_max":545,"o":"m -125 -257 l -86 -90 l 545 -90 l 505 -257 l -125 -257 z "},"`":{"ha":770,"x_min":329,"x_max":661,"o":"m 661 842 l 501 842 q 399 948 448 890 q 329 1050 350 1007 l 329 1064 l 597 1064 q 661 859 616 960 l 661 842 z "},"a":{"ha":843,"x_min":57,"x_max":828,"o":"m 275 -14 q 113 62 168 -14 q 57 279 57 137 q 106 527 57 401 q 231 717 155 652 q 399 782 307 782 q 499 756 456 782 q 576 673 543 730 l 582 673 l 618 768 l 828 768 l 665 0 l 456 0 l 463 83 l 457 83 q 376 9 420 32 q 275 -14 332 -14 m 383 197 q 448 236 417 197 q 497 342 478 275 q 515 464 515 410 q 460 571 515 571 q 366 486 408 571 q 325 299 325 400 q 383 197 325 197 z "},"b":{"ha":843,"x_min":16,"x_max":786,"o":"m 568 782 q 730 706 673 782 q 786 489 786 631 q 738 244 786 370 q 615 53 690 119 q 446 -14 539 -14 q 347 8 389 -14 q 262 85 305 30 l 257 85 l 224 0 l 16 0 l 239 1055 l 501 1055 l 468 899 q 407 694 443 781 l 412 694 q 465 749 444 733 q 568 782 507 782 m 460 571 q 395 532 426 571 q 347 427 365 494 q 329 294 329 361 q 382 197 329 197 q 447 238 415 197 q 499 344 479 278 q 518 473 518 410 q 460 571 518 571 z "},"c":{"ha":700,"x_min":57,"x_max":717,"o":"m 597 47 q 348 -14 487 -14 q 132 68 209 -14 q 57 294 57 151 q 109 547 57 437 q 254 720 160 657 q 474 782 349 782 q 717 728 599 782 l 633 533 q 481 574 543 574 q 403 541 438 574 q 344 445 368 509 q 321 318 321 380 q 341 226 321 255 q 406 197 361 197 q 597 256 486 197 l 597 47 z "},"d":{"ha":839,"x_min":57,"x_max":889,"o":"m 275 -14 q 113 62 168 -14 q 57 279 57 137 q 105 525 57 399 q 229 716 153 650 q 397 782 305 782 q 483 761 449 782 q 558 679 518 741 l 564 679 l 565 704 q 582 851 570 799 l 624 1055 l 889 1055 l 665 0 l 456 0 l 463 83 l 457 83 q 376 9 419 31 q 275 -14 334 -14 m 383 197 q 448 236 417 197 q 497 342 478 275 q 515 473 515 410 q 461 571 515 571 q 396 531 428 571 q 344 425 363 490 q 325 294 325 359 q 383 197 325 197 z "},"e":{"ha":804,"x_min":57,"x_max":774,"o":"m 361 -14 q 137 66 217 -14 q 57 289 57 146 q 114 547 57 432 q 269 722 170 663 q 496 782 367 782 q 700 724 625 782 q 774 568 774 666 q 668 359 774 432 q 361 286 562 286 l 321 286 l 321 275 q 432 175 321 175 q 536 191 485 175 q 654 241 588 206 l 654 56 q 512 1 576 16 q 361 -14 448 -14 m 367 450 q 483 478 440 450 q 525 553 525 506 q 511 590 525 576 q 468 604 496 604 q 390 556 426 604 q 347 450 354 509 l 367 450 z "},"f":{"ha":570,"x_min":-142,"x_max":711,"o":"m -1 -334 q -142 -315 -76 -334 l -142 -110 q -56 -122 -99 -122 q 14 -102 -12 -122 q 49 -37 39 -82 l 178 571 l 65 571 l 94 700 l 222 765 l 233 815 q 332 1003 262 944 q 516 1063 401 1063 q 711 1023 631 1063 l 644 844 q 554 865 602 865 q 494 817 506 865 l 484 768 l 627 768 l 582 571 l 440 571 l 301 -79 q 197 -271 272 -209 q -1 -334 123 -334 z "},"g":{"ha":777,"x_min":-90,"x_max":838,"o":"m 433 782 q 567 768 505 782 l 838 768 l 810 628 l 701 593 q 708 529 708 566 q 620 319 708 399 q 390 240 532 240 q 306 249 337 240 q 279 230 286 238 q 273 214 273 222 q 349 174 273 184 l 441 161 q 611 99 560 144 q 663 -29 663 54 q 548 -254 663 -175 q 224 -334 434 -334 q -5 -282 79 -334 q -90 -140 -90 -231 q -44 -25 -90 -73 q 100 54 3 22 q 58 96 74 71 q 43 149 43 121 q 77 234 43 196 q 180 302 111 271 q 92 493 92 373 q 184 704 92 626 q 433 782 276 782 m 420 624 q 363 575 387 624 q 339 466 339 527 q 385 406 339 406 q 442 452 420 406 q 465 561 465 498 q 424 624 465 624 q 420 624 422 624 m 134 -103 q 249 -161 134 -161 q 378 -142 334 -161 q 422 -86 422 -123 q 400 -49 422 -62 q 322 -31 378 -37 l 244 -22 q 134 -103 134 -39 z "},"h":{"ha":864,"x_min":16,"x_max":799,"o":"m 521 419 q 533 508 533 472 q 518 558 533 543 q 482 574 504 574 q 357 375 397 574 l 278 0 l 16 0 l 239 1055 l 501 1055 l 465 886 q 406 694 442 781 l 411 694 q 596 782 479 782 q 745 724 692 782 q 799 564 799 666 q 782 408 799 490 l 696 0 l 433 0 l 521 419 z "},"i":{"ha":452,"x_min":16,"x_max":492,"o":"m 210 937 q 250 1043 210 1006 q 357 1079 290 1079 q 458 1054 425 1079 q 492 983 492 1029 q 452 879 492 916 q 339 842 412 842 q 210 937 210 842 m 16 0 l 178 768 l 441 768 l 278 0 l 16 0 z "},"j":{"ha":452,"x_min":-179,"x_max":497,"o":"m 215 937 q 255 1043 215 1006 q 362 1079 295 1079 q 464 1054 430 1079 q 497 983 497 1029 q 458 880 497 918 q 345 842 420 842 q 215 937 215 842 m -39 -334 q -179 -315 -113 -334 l -179 -110 q -103 -122 -141 -122 q 16 -22 -7 -122 l 183 768 l 446 768 l 269 -64 q 163 -264 242 -195 q -39 -334 83 -334 z "},"k":{"ha":857,"x_min":16,"x_max":932,"o":"m 498 1055 l 404 606 q 358 454 393 555 l 364 454 q 468 590 420 538 l 632 768 l 932 768 l 599 421 l 785 0 l 488 0 l 393 265 l 325 229 l 278 0 l 16 0 l 236 1055 l 498 1055 z "},"l":{"ha":452,"x_min":16,"x_max":501,"o":"m 16 0 l 239 1055 l 501 1055 l 278 0 l 16 0 z "},"m":{"ha":1286,"x_min":16,"x_max":1221,"o":"m 536 510 q 488 574 536 574 q 411 525 442 574 q 358 374 380 475 l 278 0 l 16 0 l 178 768 l 387 768 l 376 642 l 382 642 q 475 750 424 719 q 604 782 527 782 q 725 747 682 782 q 787 642 769 711 l 793 642 q 894 748 837 713 q 1026 782 951 782 q 1171 725 1122 782 q 1221 555 1221 667 q 1206 416 1221 488 l 1121 0 l 859 0 l 946 428 q 956 518 956 467 q 943 559 956 545 q 908 574 930 574 q 828 524 859 574 q 775 368 797 473 l 700 0 l 437 0 l 526 428 q 536 510 536 489 z "},"n":{"ha":864,"x_min":16,"x_max":799,"o":"m 521 419 q 533 508 533 472 q 518 558 533 543 q 482 574 504 574 q 410 524 442 574 q 357 375 377 475 l 278 0 l 16 0 l 178 768 l 387 768 l 379 661 l 385 661 q 472 753 421 725 q 596 782 522 782 q 745 724 692 782 q 799 564 799 666 q 782 408 799 490 l 696 0 l 433 0 l 521 419 z "},"o":{"ha":843,"x_min":57,"x_max":786,"o":"m 732 229 q 705 171 732 229 q 580 50 678 113 q 346 -14 481 -14 q 134 63 211 -14 q 57 282 57 140 q 111 541 57 425 q 263 719 165 656 q 496 782 361 782 q 709 705 632 782 q 786 487 786 629 q 732 229 786 345 m 460 585 q 365 490 404 585 q 325 273 325 396 q 382 183 325 183 q 477 277 437 183 q 518 494 518 372 q 503 562 518 538 q 460 585 487 585 z "},"p":{"ha":843,"x_min":-56,"x_max":786,"o":"m 385 682 q 558 782 450 782 q 726 706 666 782 q 786 495 786 630 q 738 239 786 360 q 612 52 690 118 q 439 -14 534 -14 q 285 85 345 -14 l 279 85 q 241 -167 271 -24 l 207 -334 l -56 -334 l 178 768 l 387 768 l 379 682 l 385 682 m 460 571 q 395 532 426 571 q 347 427 365 494 q 329 305 329 361 q 389 197 329 197 q 451 236 422 197 q 499 339 481 275 q 518 473 518 404 q 460 571 518 571 z "},"q":{"ha":843,"x_min":57,"x_max":828,"o":"m 258 -14 q 113 64 170 -14 q 57 271 57 142 q 57 277 57 273 q 105 525 57 399 q 229 716 154 650 q 397 782 304 782 q 497 759 458 782 q 576 673 535 736 l 582 673 l 618 768 l 828 768 l 595 -334 l 329 -334 l 375 -135 q 436 75 393 -55 l 431 75 q 355 6 395 26 q 262 -14 315 -14 q 258 -14 260 -14 m 383 197 q 448 236 417 197 q 497 342 478 275 q 515 473 515 410 q 461 571 515 571 q 396 531 428 571 q 344 425 363 490 q 325 294 325 359 q 383 197 325 197 z "},"r":{"ha":607,"x_min":16,"x_max":665,"o":"m 611 782 q 665 777 648 782 l 608 517 q 525 532 572 532 q 414 484 456 532 q 350 338 372 437 l 278 0 l 16 0 l 178 768 l 387 768 l 375 640 l 380 640 q 476 749 424 716 q 611 782 528 782 z "},"s":{"ha":697,"x_min":21,"x_max":669,"o":"m 412 603 q 361 557 361 603 q 380 524 361 538 q 452 484 399 510 q 604 269 604 407 q 516 59 604 132 q 269 -14 427 -14 q 21 29 111 -14 l 21 240 q 245 179 133 179 q 338 227 338 179 q 320 267 338 250 q 232 325 302 285 q 127 415 160 364 q 94 539 94 466 q 176 719 94 656 q 406 782 258 782 q 669 710 553 782 l 587 539 q 495 586 543 568 q 412 603 447 603 z "},"t":{"ha":635,"x_min":43,"x_max":648,"o":"m 342 240 q 385 197 342 197 q 509 229 429 197 l 509 32 q 278 -14 417 -14 q 125 31 176 -14 q 74 171 74 75 q 90 298 74 222 l 147 571 l 43 571 l 71 700 l 218 760 l 311 922 l 486 922 l 453 768 l 648 768 l 606 571 l 410 571 l 353 311 q 342 240 342 261 z "},"u":{"ha":864,"x_min":65,"x_max":848,"o":"m 343 350 q 330 261 330 296 q 345 211 330 226 q 382 196 359 196 q 454 249 422 196 q 507 395 487 302 l 586 768 l 848 768 l 686 0 l 476 0 l 485 107 l 479 107 q 392 15 443 44 q 268 -14 342 -14 q 119 44 172 -14 q 65 204 65 102 q 82 359 65 277 l 168 768 l 431 768 l 343 350 z "},"v":{"ha":755,"x_min":60,"x_max":836,"o":"m 60 768 l 321 768 l 339 359 q 334 279 339 312 l 339 279 q 351 322 340 289 q 376 383 362 355 l 555 768 l 836 768 l 421 0 l 158 0 l 60 768 z "},"w":{"ha":1143,"x_min":69,"x_max":1221,"o":"m 317 768 l 317 421 q 311 245 317 301 l 317 245 q 376 446 349 368 l 493 768 l 783 768 l 770 446 q 747 245 764 359 l 753 245 l 763 277 l 796 372 q 960 768 824 451 l 1221 768 l 856 0 l 570 0 l 583 304 q 591 445 584 346 q 606 595 598 544 l 600 595 q 518 330 559 435 l 390 0 l 114 0 l 69 768 l 317 768 z "},"x":{"ha":786,"x_min":-81,"x_max":875,"o":"m 227 0 l -81 0 l 240 392 l 100 768 l 386 768 l 437 555 l 564 768 l 875 768 l 559 378 l 714 0 l 424 0 l 370 222 l 227 0 z "},"y":{"ha":755,"x_min":-87,"x_max":833,"o":"m 350 286 l 355 286 q 393 408 382 381 q 551 768 404 435 l 833 768 l 379 -97 q 228 -278 314 -222 q 17 -334 142 -334 q -87 -322 -45 -334 l -87 -114 q -5 -122 -56 -122 q 83 -98 45 -122 q 150 -20 121 -73 l 165 8 l 56 768 l 319 768 l 349 387 l 350 345 l 350 286 z "},"z":{"ha":673,"x_min":-28,"x_max":701,"o":"m -28 0 l 1 150 l 342 566 l 106 566 l 151 768 l 701 768 l 665 604 l 329 203 l 589 203 l 545 0 l -28 0 z "},"{":{"ha":498,"x_min":-11,"x_max":599,"o":"m 293 31 q 370 -29 293 -29 l 370 -220 l 314 -220 q 130 -173 190 -220 q 69 -32 69 -127 q 79 54 69 11 l 104 172 q 109 201 109 189 q 80 273 109 252 q -11 294 52 294 l 25 489 q 144 515 106 489 q 196 606 182 541 l 233 772 q 285 901 253 857 q 511 991 351 991 l 599 991 l 557 802 q 475 781 501 800 q 437 714 449 762 l 401 539 q 342 436 387 473 q 212 389 298 399 l 212 383 q 328 225 328 346 q 321 175 328 212 l 297 64 q 293 31 293 43 z "},"|":{"ha":786,"x_min":300,"x_max":484,"o":"m 484 1050 l 484 -315 l 300 -315 l 300 1050 l 484 1050 z "},"}":{"ha":498,"x_min":-83,"x_max":507,"o":"m -83 -220 l -83 -29 q -10 -20 -35 -27 q 27 3 15 -12 q 47 58 39 18 l 83 233 q 143 338 98 301 q 272 383 189 375 l 272 389 q 157 547 157 427 q 164 597 157 554 l 187 708 q 192 742 192 726 q 100 802 192 802 l 136 991 l 178 991 q 353 943 292 991 q 415 806 415 895 q 406 718 415 760 l 380 600 q 376 571 376 583 q 407 502 376 525 q 507 479 438 479 l 468 285 q 344 257 386 285 q 289 167 302 230 l 252 0 q 158 -168 227 -115 q -33 -220 90 -220 l -83 -220 z "},"~":{"ha":786,"x_min":65,"x_max":726,"o":"m 549 357 q 471 366 507 357 q 379 397 435 374 q 292 429 323 420 q 228 437 261 437 q 65 355 150 437 l 65 549 q 243 623 137 623 q 315 615 283 623 q 409 584 347 608 q 501 550 470 559 q 567 542 532 542 q 645 564 601 542 q 726 624 688 586 l 726 431 q 549 357 654 357 z "},"¡":{"ha":422,"x_min":-74,"x_max":397,"o":"m 397 679 q 353 563 397 606 q 232 521 309 521 q 141 548 173 521 q 110 627 110 576 q 153 741 110 700 q 271 782 196 782 q 364 755 331 782 q 397 679 397 728 m 321 412 l 215 -229 l -74 -229 l 98 412 l 321 412 z "},"¢":{"ha":806,"x_min":104,"x_max":764,"o":"m 104 397 q 199 743 104 604 q 452 905 295 882 l 473 1006 l 629 1006 l 607 904 q 764 852 690 890 l 681 659 q 593 691 627 684 q 528 699 559 699 q 450 665 486 699 q 392 565 414 631 q 371 425 371 498 q 391 349 371 373 q 453 325 412 325 q 644 386 530 325 l 644 175 q 436 114 545 122 l 408 -14 l 253 -14 l 288 127 q 104 397 104 177 z "},"£":{"ha":806,"x_min":-12,"x_max":829,"o":"m 576 1006 q 829 947 699 1006 l 732 745 q 651 778 682 768 q 591 787 620 787 q 549 770 563 787 q 525 708 534 753 l 509 631 l 679 631 l 640 441 l 469 441 l 456 378 q 409 287 445 328 q 318 224 372 247 l 728 224 l 679 0 l -12 0 l 31 212 q 113 245 83 227 q 159 293 142 264 q 187 376 176 321 l 201 441 l 74 441 l 113 631 l 240 631 l 256 718 q 313 883 273 817 q 416 977 354 947 q 576 1006 478 1006 z "},"¥":{"ha":806,"x_min":52,"x_max":899,"o":"m 632 991 l 899 991 l 567 494 l 692 494 l 661 355 l 510 355 l 492 268 l 643 268 l 614 129 l 463 129 l 435 0 l 178 0 l 205 129 l 52 129 l 81 268 l 235 268 l 252 355 l 98 355 l 129 494 l 250 494 l 123 991 l 385 991 l 433 661 l 632 991 z "},"§":{"ha":703,"x_min":25,"x_max":726,"o":"m 659 848 q 460 917 552 917 q 403 903 422 917 q 385 867 385 888 q 405 817 385 836 q 486 768 425 799 q 652 557 652 692 q 625 439 652 488 q 538 357 599 391 q 585 221 585 301 q 499 45 585 106 q 260 -17 413 -17 q 25 47 107 -17 l 25 216 q 268 135 159 135 q 342 154 315 135 q 370 202 370 174 q 349 253 370 231 q 278 302 328 275 q 107 526 107 396 q 228 717 107 642 q 188 777 202 743 q 174 847 174 812 q 253 1013 174 956 q 482 1069 332 1069 q 726 1000 608 1069 l 659 848 m 355 637 q 315 601 331 625 q 300 551 300 577 q 410 436 300 497 q 460 522 460 471 q 435 587 460 559 q 355 637 410 615 z "},"¨":{"ha":770,"x_min":228,"x_max":808,"o":"m 228 939 q 364 1065 228 1065 q 479 981 479 1065 q 343 852 479 852 q 256 873 283 852 q 228 939 228 895 m 558 939 q 694 1065 558 1065 q 808 981 808 1065 q 673 852 808 852 q 586 873 614 852 q 558 939 558 895 z "},"©":{"ha":1145,"x_min":77,"x_max":1096,"o":"m 143 243 q 77 497 77 362 q 145 752 77 633 q 332 939 214 871 q 586 1006 450 1006 q 841 938 722 1006 q 1028 751 960 869 q 1096 497 1096 632 q 1029 244 1096 361 q 845 56 963 126 q 586 -14 726 -14 q 328 56 446 -14 q 143 243 210 126 m 785 841 q 586 895 693 895 q 386 840 479 895 q 239 694 292 786 q 187 495 187 602 q 240 297 187 389 q 386 151 294 204 q 585 97 478 97 q 784 149 692 97 q 930 294 876 201 q 985 495 985 387 q 931 695 985 603 q 785 841 878 788 m 619 659 q 533 616 564 659 q 503 492 503 574 q 532 371 503 410 q 624 332 562 332 q 799 378 717 332 l 799 221 q 614 178 714 178 q 391 262 469 178 q 313 497 313 347 q 389 730 313 647 q 607 812 467 812 q 832 757 720 812 l 770 618 q 619 659 692 659 z "},"ª":{"ha":561,"x_min":94,"x_max":637,"o":"m 239 494 q 135 543 176 494 q 94 676 94 592 q 125 836 94 760 q 209 957 156 913 q 328 1000 262 1000 q 402 987 370 1000 q 472 933 435 974 l 478 933 l 503 991 l 637 991 l 522 503 l 390 503 l 396 561 l 390 561 q 239 494 330 494 m 326 618 q 398 672 370 618 q 427 799 427 727 q 413 856 427 835 q 376 876 400 876 q 328 848 352 876 q 292 775 305 820 q 279 693 279 731 q 292 636 279 654 q 326 618 305 618 z "},"«":{"ha":865,"x_min":41,"x_max":876,"o":"m 700 737 l 876 595 l 688 387 l 771 144 l 545 52 l 412 395 l 412 401 l 700 737 m 318 733 l 497 595 l 317 368 l 392 144 l 165 52 l 41 375 l 41 382 l 318 733 z "},"¬":{"ha":786,"x_min":56,"x_max":717,"o":"m 717 161 l 533 161 l 533 397 l 56 397 l 56 582 l 717 582 l 717 161 z "},"®":{"ha":1145,"x_min":77,"x_max":1096,"o":"m 143 243 q 77 497 77 362 q 145 752 77 633 q 332 939 214 871 q 586 1006 450 1006 q 841 938 722 1006 q 1028 751 960 869 q 1096 497 1096 632 q 1029 244 1096 361 q 845 56 963 126 q 586 -14 726 -14 q 328 56 446 -14 q 143 243 210 126 m 785 841 q 586 895 693 895 q 386 840 479 895 q 239 694 292 786 q 187 495 187 602 q 240 297 187 389 q 386 151 294 204 q 585 97 478 97 q 784 149 692 97 q 930 294 876 201 q 985 495 985 387 q 931 695 985 603 q 785 841 878 788 m 363 806 l 559 806 q 773 759 703 806 q 844 623 844 711 q 720 453 844 499 l 863 212 l 669 212 l 561 429 l 553 429 l 553 212 l 363 212 l 363 806 m 553 549 l 559 549 q 632 564 612 549 q 653 614 653 578 q 631 662 653 650 q 558 673 608 673 l 553 673 l 553 549 z "},"¯":{"ha":625,"x_min":124,"x_max":793,"o":"m 163 1221 l 793 1221 l 754 1054 l 124 1054 l 163 1221 z "},"°":{"ha":586,"x_min":113,"x_max":612,"o":"m 113 763 q 146 880 113 823 q 237 971 179 937 q 358 1006 295 1006 q 363 1006 360 1006 q 487 972 429 1006 q 579 880 545 939 q 612 755 612 821 q 579 632 612 690 q 487 541 545 574 q 363 509 429 509 q 358 509 360 509 q 237 542 295 509 q 146 631 180 575 q 113 748 113 687 q 113 755 113 752 q 113 763 113 759 m 426 818 q 413 832 426 818 q 363 846 400 846 q 299 819 326 846 q 273 756 273 791 q 300 695 273 720 q 362 669 328 669 q 425 695 397 669 q 452 755 452 720 q 426 818 452 791 z "},"±":{"ha":786,"x_min":69,"x_max":730,"o":"m 69 471 l 69 654 l 309 654 l 309 893 l 492 893 l 492 654 l 730 654 l 730 471 l 492 471 l 492 233 l 309 233 l 309 471 l 69 471 m 69 183 l 730 183 l 730 0 l 69 0 l 69 183 z "},"´":{"ha":770,"x_min":307,"x_max":796,"o":"m 307 842 l 307 857 q 498 1064 390 926 l 796 1064 l 796 1054 q 667 948 766 1018 q 500 842 568 878 l 307 842 z "},"¶":{"ha":893,"x_min":69,"x_max":804,"o":"m 675 -176 l 675 900 l 568 900 l 568 -176 l 439 -176 l 439 379 q 354 367 402 367 q 139 451 208 367 q 69 709 69 535 q 143 969 69 882 q 375 1055 217 1055 l 804 1055 l 804 -176 l 675 -176 z "},"·":{"ha":425,"x_min":78,"x_max":366,"o":"m 78 464 q 122 578 78 536 q 243 621 166 621 q 332 593 299 621 q 366 515 366 565 q 322 398 366 437 q 200 359 279 359 q 110 387 142 359 q 78 464 78 414 z "},"¸":{"ha":260,"x_min":-150,"x_max":195,"o":"m 195 -160 q 138 -288 195 -242 q -20 -334 82 -334 q -150 -314 -97 -334 l -150 -175 q -96 -187 -129 -181 q -47 -193 -64 -193 q -1 -160 -1 -193 q -100 -92 -1 -111 l -49 0 l 90 0 l 74 -28 q 195 -160 195 -53 z "},"º":{"ha":554,"x_min":94,"x_max":593,"o":"m 593 795 q 514 578 593 663 q 304 493 435 493 q 300 493 302 493 q 148 544 202 493 q 94 681 94 595 q 173 914 94 825 q 389 1003 252 1003 q 539 949 486 1003 q 593 802 593 896 q 593 795 593 798 m 408 802 q 400 849 408 833 q 371 864 392 864 q 304 814 330 864 q 279 689 279 765 q 317 632 279 632 q 383 680 357 632 q 408 802 408 728 z "},"»":{"ha":865,"x_min":-9,"x_max":823,"o":"m 165 24 l -9 168 l 178 375 l 96 618 l 321 711 l 453 368 l 453 361 l 165 24 m 547 29 l 368 168 l 549 395 l 473 618 l 700 711 l 823 387 l 823 380 l 547 29 z "},"¿":{"ha":677,"x_min":-57,"x_max":553,"o":"m 543 679 q 499 563 543 606 q 378 521 455 521 q 287 548 319 521 q 256 627 256 576 q 299 741 256 700 q 416 782 342 782 q 510 755 477 782 q 543 679 543 728 m 199 17 q 260 -31 199 -31 q 472 43 344 -31 l 553 -149 q 240 -240 399 -240 q 23 -179 103 -240 q -57 -11 -57 -118 q -38 94 -57 50 q 14 175 -20 138 q 123 256 48 211 q 227 330 197 300 q 265 386 256 356 l 275 415 l 489 415 l 481 372 q 402 206 462 267 q 311 135 374 176 q 223 68 247 93 q 199 17 199 44 z "},"À":{"ha":939,"x_min":-82,"x_max":847,"o":"m 706 1071 l 546 1071 q 444 1178 493 1119 q 374 1279 395 1236 l 374 1293 l 642 1293 q 706 1088 661 1189 l 706 1071 m 193 0 l -82 0 l 422 991 l 764 991 l 847 0 l 589 0 l 582 186 l 278 186 l 193 0 m 562 685 l 561 743 q 564 832 561 799 q 522 720 547 770 l 375 397 l 574 397 l 562 685 z "},"Á":{"ha":939,"x_min":-82,"x_max":970,"o":"m 481 1071 l 481 1086 q 672 1293 564 1155 l 970 1293 l 970 1283 q 841 1177 940 1247 q 673 1071 742 1107 l 481 1071 m 193 0 l -82 0 l 422 991 l 764 991 l 847 0 l 589 0 l 582 186 l 278 186 l 193 0 m 562 685 l 561 743 q 564 832 561 799 q 522 720 547 770 l 375 397 l 574 397 l 562 685 z "},"Â":{"ha":939,"x_min":-82,"x_max":905,"o":"m 905 1071 l 725 1071 q 619 1189 693 1099 q 456 1071 525 1115 l 271 1071 l 271 1086 q 384 1195 316 1128 q 480 1293 451 1261 l 783 1293 q 837 1191 800 1253 q 905 1086 873 1129 l 905 1071 m 193 0 l -82 0 l 422 991 l 764 991 l 847 0 l 589 0 l 582 186 l 278 186 l 193 0 m 562 685 l 561 743 q 564 832 561 799 q 522 720 547 770 l 375 397 l 574 397 l 562 685 z "},"Ã":{"ha":939,"x_min":-82,"x_max":925,"o":"m 703 1069 q 591 1105 658 1069 q 505 1136 541 1136 q 463 1117 483 1136 q 439 1068 443 1098 l 311 1068 q 385 1243 333 1185 q 524 1300 437 1300 q 564 1296 547 1300 q 628 1267 581 1291 q 718 1234 687 1234 q 796 1301 771 1234 l 925 1301 q 848 1127 902 1184 q 707 1069 795 1069 q 703 1069 705 1069 m 193 0 l -82 0 l 422 991 l 764 991 l 847 0 l 589 0 l 582 186 l 278 186 l 193 0 m 562 685 l 561 743 q 564 832 561 799 q 522 720 547 770 l 375 397 l 574 397 l 562 685 z "},"Ä":{"ha":939,"x_min":-82,"x_max":921,"o":"m 340 1168 q 477 1295 340 1295 q 592 1210 592 1295 q 456 1082 592 1082 q 368 1103 396 1082 q 340 1168 340 1124 m 671 1168 q 807 1295 671 1295 q 921 1210 921 1295 q 786 1082 921 1082 q 699 1103 726 1082 q 671 1168 671 1124 m 193 0 l -82 0 l 422 991 l 764 991 l 847 0 l 589 0 l 582 186 l 278 186 l 193 0 m 562 685 l 561 743 q 564 832 561 799 q 522 720 547 770 l 375 397 l 574 397 l 562 685 z "},"Å":{"ha":939,"x_min":-82,"x_max":847,"o":"m 412 1051 q 462 1176 412 1128 q 593 1223 511 1223 q 725 1175 674 1223 q 777 1053 777 1127 q 764 984 777 1015 l 847 0 l 589 0 l 582 186 l 278 186 l 193 0 l -82 0 l 422 990 q 412 1051 412 1019 m 654 1052 q 654 1064 654 1052 q 637 1093 654 1076 q 594 1109 619 1109 q 552 1093 570 1109 q 534 1051 534 1076 q 551 1010 534 1026 q 594 994 567 994 q 637 1011 621 994 q 654 1052 654 1027 m 574 397 l 562 685 l 561 743 q 564 832 561 799 q 522 720 547 770 l 375 397 l 574 397 z "},"Æ":{"ha":1314,"x_min":-85,"x_max":1354,"o":"m 555 0 l 595 186 l 311 186 l 196 0 l -85 0 l 532 991 l 1354 991 l 1310 777 l 986 777 l 954 621 l 1255 621 l 1207 406 l 905 406 l 867 218 l 1190 218 l 1145 0 l 555 0 m 720 777 l 673 777 l 449 408 l 643 408 l 720 777 z "},"Ç":{"ha":875,"x_min":71,"x_max":924,"o":"m 597 786 q 465 733 524 786 q 373 588 406 680 q 339 386 339 496 q 486 205 339 205 q 600 219 541 205 q 736 267 659 233 l 736 47 q 439 -14 600 -14 l 431 -28 q 551 -160 551 -53 q 495 -288 551 -242 q 337 -334 439 -334 q 207 -314 260 -334 l 207 -175 q 260 -187 228 -181 q 309 -193 293 -193 q 355 -160 355 -193 q 257 -92 355 -111 l 308 0 l 319 0 q 165 87 224 24 q 71 370 71 188 q 139 702 71 552 q 326 930 208 852 q 597 1007 444 1007 q 924 918 777 1007 l 823 711 q 705 768 758 750 q 597 786 652 786 z "},"È":{"ha":781,"x_min":22,"x_max":821,"o":"m 633 1071 l 473 1071 q 371 1178 420 1119 q 300 1279 321 1236 l 300 1293 l 569 1293 q 633 1088 588 1189 l 633 1071 m 232 991 l 821 991 l 777 777 l 453 777 l 421 621 l 722 621 l 673 406 l 372 406 l 334 218 l 657 218 l 611 0 l 22 0 l 232 991 z "},"É":{"ha":781,"x_min":22,"x_max":881,"o":"m 392 1071 l 392 1086 q 583 1293 475 1155 l 881 1293 l 881 1283 q 752 1177 851 1247 q 585 1071 653 1107 l 392 1071 m 232 991 l 821 991 l 777 777 l 453 777 l 421 621 l 722 621 l 673 406 l 372 406 l 334 218 l 657 218 l 611 0 l 22 0 l 232 991 z "},"Ê":{"ha":781,"x_min":22,"x_max":840,"o":"m 840 1071 l 660 1071 q 554 1189 628 1099 q 391 1071 460 1115 l 205 1071 l 205 1086 q 318 1195 251 1128 q 415 1293 386 1261 l 718 1293 q 771 1191 735 1253 q 840 1086 808 1129 l 840 1071 m 232 991 l 821 991 l 777 777 l 453 777 l 421 621 l 722 621 l 673 406 l 372 406 l 334 218 l 657 218 l 611 0 l 22 0 l 232 991 z "},"Ë":{"ha":781,"x_min":22,"x_max":840,"o":"m 260 1168 q 396 1295 260 1295 q 511 1210 511 1295 q 375 1082 511 1082 q 288 1103 315 1082 q 260 1168 260 1124 m 590 1168 q 726 1295 590 1295 q 840 1210 840 1295 q 705 1082 840 1082 q 618 1103 646 1082 q 590 1168 590 1124 m 232 991 l 821 991 l 777 777 l 453 777 l 421 621 l 722 621 l 673 406 l 372 406 l 334 218 l 657 218 l 611 0 l 22 0 l 232 991 z "},"Ì":{"ha":493,"x_min":21,"x_max":508,"o":"m 508 1071 l 348 1071 q 246 1178 295 1119 q 176 1279 197 1236 l 176 1293 l 444 1293 q 508 1088 463 1189 l 508 1071 m 500 991 l 290 0 l 21 0 l 231 991 l 500 991 z "},"Í":{"ha":493,"x_min":21,"x_max":723,"o":"m 234 1071 l 234 1086 q 425 1293 317 1155 l 723 1293 l 723 1283 q 594 1177 693 1247 q 427 1071 495 1107 l 234 1071 m 500 991 l 290 0 l 21 0 l 231 991 l 500 991 z "},"Î":{"ha":493,"x_min":21,"x_max":688,"o":"m 688 1071 l 508 1071 q 402 1189 476 1099 q 239 1071 308 1115 l 54 1071 l 54 1086 q 166 1195 99 1128 q 263 1293 234 1261 l 566 1293 q 620 1191 583 1253 q 688 1086 656 1129 l 688 1071 m 500 991 l 290 0 l 21 0 l 231 991 l 500 991 z "},"Ï":{"ha":493,"x_min":21,"x_max":688,"o":"m 108 1168 q 244 1295 108 1295 q 359 1210 359 1295 q 223 1082 359 1082 q 136 1103 163 1082 q 108 1168 108 1124 m 438 1168 q 574 1295 438 1295 q 688 1210 688 1295 q 553 1082 688 1082 q 466 1103 494 1082 q 438 1168 438 1124 m 500 991 l 290 0 l 21 0 l 231 991 l 500 991 z "},"Ñ":{"ha":1097,"x_min":22,"x_max":1104,"o":"m 766 1069 q 654 1105 722 1069 q 568 1136 604 1136 q 527 1117 547 1136 q 503 1068 507 1098 l 375 1068 q 449 1243 397 1185 q 587 1300 501 1300 q 628 1296 611 1300 q 692 1267 645 1291 q 782 1234 751 1234 q 860 1301 835 1234 l 989 1301 q 912 1127 966 1184 q 771 1069 859 1069 q 766 1069 769 1069 m 390 697 l 385 697 q 346 414 366 500 l 258 0 l 22 0 l 232 991 l 541 991 l 734 325 l 741 325 q 779 576 760 486 l 868 991 l 1104 991 l 895 0 l 586 0 l 390 697 z "},"Ò":{"ha":1023,"x_min":71,"x_max":981,"o":"m 747 1071 l 587 1071 q 485 1178 534 1119 q 415 1279 436 1236 l 415 1293 l 684 1293 q 747 1088 703 1189 l 747 1071 m 608 1007 q 883 906 785 1007 q 981 625 981 806 q 913 295 981 444 q 727 66 846 146 q 452 -14 608 -14 q 170 87 269 -14 q 71 369 71 189 q 140 699 71 549 q 331 928 210 848 q 608 1007 451 1007 m 713 623 q 680 744 713 701 q 583 787 647 787 q 462 730 518 787 q 372 573 406 672 q 339 370 339 475 q 475 205 339 205 q 594 261 539 205 q 681 414 649 317 q 713 623 713 511 z "},"Ó":{"ha":1023,"x_min":71,"x_max":981,"o":"m 486 1071 l 486 1086 q 677 1293 569 1155 l 975 1293 l 975 1283 q 846 1177 945 1247 q 679 1071 747 1107 l 486 1071 m 608 1007 q 883 906 785 1007 q 981 625 981 806 q 913 295 981 444 q 727 66 846 146 q 452 -14 608 -14 q 170 87 269 -14 q 71 369 71 189 q 140 699 71 549 q 331 928 210 848 q 608 1007 451 1007 m 713 623 q 680 744 713 701 q 583 787 647 787 q 462 730 518 787 q 372 573 406 672 q 339 370 339 475 q 475 205 339 205 q 594 261 539 205 q 681 414 649 317 q 713 623 713 511 z "},"Ô":{"ha":1023,"x_min":71,"x_max":981,"o":"m 928 1071 l 747 1071 q 642 1189 716 1099 q 479 1071 547 1115 l 293 1071 l 293 1086 q 406 1195 338 1128 q 503 1293 473 1261 l 806 1293 q 859 1191 823 1253 q 928 1086 895 1129 l 928 1071 m 608 1007 q 883 906 785 1007 q 981 625 981 806 q 913 295 981 444 q 727 66 846 146 q 452 -14 608 -14 q 170 87 269 -14 q 71 369 71 189 q 140 699 71 549 q 331 928 210 848 q 608 1007 451 1007 m 713 623 q 680 744 713 701 q 583 787 647 787 q 462 730 518 787 q 372 573 406 672 q 339 370 339 475 q 475 205 339 205 q 594 261 539 205 q 681 414 649 317 q 713 623 713 511 z "},"Õ":{"ha":1023,"x_min":71,"x_max":981,"o":"m 723 1069 q 611 1105 678 1069 q 525 1136 562 1136 q 483 1117 503 1136 q 459 1068 463 1098 l 332 1068 q 406 1243 353 1185 q 544 1300 458 1300 q 585 1296 568 1300 q 648 1267 602 1291 q 739 1234 707 1234 q 817 1301 791 1234 l 945 1301 q 869 1127 922 1184 q 728 1069 815 1069 q 723 1069 726 1069 m 608 1007 q 883 906 785 1007 q 981 625 981 806 q 913 295 981 444 q 727 66 846 146 q 452 -14 608 -14 q 170 87 269 -14 q 71 369 71 189 q 140 699 71 549 q 331 928 210 848 q 608 1007 451 1007 m 713 623 q 680 744 713 701 q 583 787 647 787 q 462 730 518 787 q 372 573 406 672 q 339 370 339 475 q 475 205 339 205 q 594 261 539 205 q 681 414 649 317 q 713 623 713 511 z "},"Ö":{"ha":1023,"x_min":71,"x_max":981,"o":"m 347 1168 q 484 1295 347 1295 q 599 1210 599 1295 q 463 1082 599 1082 q 375 1103 403 1082 q 347 1168 347 1124 m 677 1168 q 814 1295 677 1295 q 928 1210 928 1295 q 793 1082 928 1082 q 705 1103 733 1082 q 677 1168 677 1124 m 608 1007 q 883 906 785 1007 q 981 625 981 806 q 913 295 981 444 q 727 66 846 146 q 452 -14 608 -14 q 170 87 269 -14 q 71 369 71 189 q 140 699 71 549 q 331 928 210 848 q 608 1007 451 1007 m 713 623 q 680 744 713 701 q 583 787 647 787 q 462 730 518 787 q 372 573 406 672 q 339 370 339 475 q 475 205 339 205 q 594 261 539 205 q 681 414 649 317 q 713 623 713 511 z "},"Ø":{"ha":1023,"x_min":64,"x_max":981,"o":"m 71 368 q 139 696 71 545 q 326 927 207 847 q 596 1007 444 1007 q 810 958 719 1007 l 872 1036 l 978 956 l 911 871 q 981 625 981 774 q 914 300 981 450 q 730 68 848 149 q 464 -14 612 -14 q 244 33 334 -14 l 172 -58 l 64 21 l 143 119 q 71 368 71 216 m 578 787 q 459 731 514 787 q 371 579 404 675 q 339 372 339 483 l 339 366 l 656 765 q 578 787 625 787 m 475 205 q 594 261 539 205 q 681 413 650 317 q 713 621 713 509 l 397 225 q 475 205 429 205 z "},"Ù":{"ha":974,"x_min":85,"x_max":983,"o":"m 709 1071 l 549 1071 q 447 1178 496 1119 q 376 1279 397 1236 l 376 1293 l 645 1293 q 709 1088 664 1189 l 709 1071 m 384 -14 q 229 24 298 -14 q 122 128 159 62 q 85 273 85 194 q 85 278 85 275 q 93 366 85 321 l 228 991 l 493 991 l 361 372 q 351 294 351 325 q 433 208 351 208 q 533 251 496 208 q 589 386 570 294 l 718 991 l 983 991 l 848 359 q 696 78 808 169 q 390 -14 583 -14 q 384 -14 387 -14 z "},"Ú":{"ha":974,"x_min":85,"x_max":983,"o":"m 492 1071 l 492 1086 q 683 1293 574 1155 l 981 1293 l 981 1283 q 852 1177 951 1247 q 684 1071 753 1107 l 492 1071 m 384 -14 q 229 24 298 -14 q 122 128 159 62 q 85 273 85 194 q 85 278 85 275 q 93 366 85 321 l 228 991 l 493 991 l 361 372 q 351 294 351 325 q 433 208 351 208 q 533 251 496 208 q 589 386 570 294 l 718 991 l 983 991 l 848 359 q 696 78 808 169 q 390 -14 583 -14 q 384 -14 387 -14 z "},"Û":{"ha":974,"x_min":85,"x_max":983,"o":"m 933 1071 l 753 1071 q 647 1189 722 1099 q 484 1071 552 1115 l 298 1071 l 298 1086 q 411 1195 344 1128 q 508 1293 479 1261 l 811 1293 q 865 1191 829 1253 q 933 1086 901 1129 l 933 1071 m 384 -14 q 229 24 298 -14 q 122 128 159 62 q 85 273 85 194 q 85 278 85 275 q 93 366 85 321 l 228 991 l 493 991 l 361 372 q 351 294 351 325 q 433 208 351 208 q 533 251 496 208 q 589 386 570 294 l 718 991 l 983 991 l 848 359 q 696 78 808 169 q 390 -14 583 -14 q 384 -14 387 -14 z "},"Ü":{"ha":974,"x_min":85,"x_max":983,"o":"m 361 1168 q 498 1295 361 1295 q 613 1210 613 1295 q 477 1082 613 1082 q 389 1103 417 1082 q 361 1168 361 1124 m 692 1168 q 828 1295 692 1295 q 942 1210 942 1295 q 807 1082 942 1082 q 720 1103 747 1082 q 692 1168 692 1124 m 384 -14 q 229 24 298 -14 q 122 128 159 62 q 85 273 85 194 q 85 278 85 275 q 93 366 85 321 l 228 991 l 493 991 l 361 372 q 351 294 351 325 q 433 208 351 208 q 533 251 496 208 q 589 386 570 294 l 718 991 l 983 991 l 848 359 q 696 78 808 169 q 390 -14 583 -14 q 384 -14 387 -14 z "},"ß":{"ha":990,"x_min":-176,"x_max":949,"o":"m -36 -334 q -176 -315 -110 -334 l -176 -110 q -91 -122 -134 -122 q -22 -102 -47 -122 q 14 -37 4 -82 l 179 743 q 315 987 214 912 q 590 1063 416 1063 q 856 996 764 1063 q 949 810 949 928 q 914 675 949 730 q 802 584 879 621 q 725 517 725 548 q 739 482 725 498 q 798 444 754 467 q 893 364 863 410 q 924 253 924 318 q 834 59 924 132 q 585 -14 744 -14 q 399 17 475 -14 l 399 220 q 491 189 440 199 q 581 178 543 178 q 640 192 620 178 q 660 227 660 206 q 646 263 660 248 q 571 318 632 279 q 483 396 509 358 q 457 489 457 433 q 486 585 457 545 q 597 671 514 625 q 665 722 645 697 q 685 781 685 746 q 657 836 685 815 q 576 857 629 857 q 488 823 524 857 q 437 724 451 789 l 267 -79 q 163 -271 237 -209 q -36 -334 88 -334 z "},"à":{"ha":843,"x_min":57,"x_max":828,"o":"m 604 842 l 444 842 q 341 948 391 890 q 271 1050 292 1007 l 271 1064 l 540 1064 q 604 859 559 960 l 604 842 m 275 -14 q 113 62 168 -14 q 57 279 57 137 q 106 527 57 401 q 231 717 155 652 q 399 782 307 782 q 499 756 456 782 q 576 673 543 730 l 582 673 l 618 768 l 828 768 l 665 0 l 456 0 l 463 83 l 457 83 q 376 9 420 32 q 275 -14 332 -14 m 383 197 q 448 236 417 197 q 497 342 478 275 q 515 464 515 410 q 460 571 515 571 q 366 486 408 571 q 325 299 325 400 q 383 197 325 197 z "},"á":{"ha":843,"x_min":57,"x_max":849,"o":"m 360 842 l 360 857 q 551 1064 443 926 l 849 1064 l 849 1054 q 720 948 819 1018 q 553 842 621 878 l 360 842 m 275 -14 q 113 62 168 -14 q 57 279 57 137 q 106 527 57 401 q 231 717 155 652 q 399 782 307 782 q 499 756 456 782 q 576 673 543 730 l 582 673 l 618 768 l 828 768 l 665 0 l 456 0 l 463 83 l 457 83 q 376 9 420 32 q 275 -14 332 -14 m 383 197 q 448 236 417 197 q 497 342 478 275 q 515 464 515 410 q 460 571 515 571 q 366 486 408 571 q 325 299 325 400 q 383 197 325 197 z "},"â":{"ha":843,"x_min":57,"x_max":828,"o":"m 812 840 l 632 840 q 526 958 601 867 q 363 840 431 883 l 178 840 l 178 855 q 291 963 223 897 q 387 1062 358 1030 l 690 1062 q 744 960 708 1023 q 812 855 780 898 l 812 840 m 275 -14 q 113 62 168 -14 q 57 279 57 137 q 106 527 57 401 q 231 717 155 652 q 399 782 307 782 q 499 756 456 782 q 576 673 543 730 l 582 673 l 618 768 l 828 768 l 665 0 l 456 0 l 463 83 l 457 83 q 376 9 420 32 q 275 -14 332 -14 m 383 197 q 448 236 417 197 q 497 342 478 275 q 515 464 515 410 q 460 571 515 571 q 366 486 408 571 q 325 299 325 400 q 383 197 325 197 z "},"ã":{"ha":843,"x_min":57,"x_max":828,"o":"m 595 840 q 484 876 551 840 q 397 907 433 907 q 356 888 376 907 q 332 839 336 869 l 204 839 q 278 1014 226 956 q 416 1071 330 1071 q 457 1066 440 1071 q 521 1038 474 1062 q 611 1004 580 1004 q 689 1072 664 1004 l 818 1072 q 741 898 795 955 q 600 840 688 840 q 595 840 598 840 m 275 -14 q 113 62 168 -14 q 57 279 57 137 q 106 527 57 401 q 231 717 155 652 q 399 782 307 782 q 499 756 456 782 q 576 673 543 730 l 582 673 l 618 768 l 828 768 l 665 0 l 456 0 l 463 83 l 457 83 q 376 9 420 32 q 275 -14 332 -14 m 383 197 q 448 236 417 197 q 497 342 478 275 q 515 464 515 410 q 460 571 515 571 q 366 486 408 571 q 325 299 325 400 q 383 197 325 197 z "},"ä":{"ha":843,"x_min":57,"x_max":828,"o":"m 224 939 q 361 1065 224 1065 q 476 981 476 1065 q 340 852 476 852 q 252 873 280 852 q 224 939 224 895 m 555 939 q 691 1065 555 1065 q 805 981 805 1065 q 670 852 805 852 q 583 873 610 852 q 555 939 555 895 m 275 -14 q 113 62 168 -14 q 57 279 57 137 q 106 527 57 401 q 231 717 155 652 q 399 782 307 782 q 499 756 456 782 q 576 673 543 730 l 582 673 l 618 768 l 828 768 l 665 0 l 456 0 l 463 83 l 457 83 q 376 9 420 32 q 275 -14 332 -14 m 383 197 q 448 236 417 197 q 497 342 478 275 q 515 464 515 410 q 460 571 515 571 q 366 486 408 571 q 325 299 325 400 q 383 197 325 197 z "},"å":{"ha":843,"x_min":57,"x_max":828,"o":"m 331 1009 q 331 1048 331 1009 q 380 1135 331 1087 q 511 1182 430 1182 q 644 1134 593 1182 q 695 1010 695 1086 q 645 887 695 935 q 513 839 595 839 q 381 885 431 839 q 331 1009 331 932 m 512 953 q 526 953 512 953 q 556 969 539 953 q 573 1010 573 986 q 555 1052 573 1035 q 513 1068 538 1068 q 471 1052 488 1068 q 453 1010 453 1035 q 469 969 453 985 q 512 953 486 953 m 275 -14 q 113 62 168 -14 q 57 279 57 137 q 106 527 57 401 q 231 717 155 652 q 399 782 307 782 q 499 756 456 782 q 576 673 543 730 l 582 673 l 618 768 l 828 768 l 665 0 l 456 0 l 463 83 l 457 83 q 376 9 420 32 q 275 -14 332 -14 m 383 197 q 448 236 417 197 q 497 342 478 275 q 515 464 515 410 q 460 571 515 571 q 366 486 408 571 q 325 299 325 400 q 383 197 325 197 z "},"æ":{"ha":1213,"x_min":57,"x_max":1182,"o":"m 808 -14 q 631 62 686 -14 l 610 0 l 456 0 l 463 83 l 457 83 q 376 9 420 32 q 275 -14 332 -14 q 113 62 168 -14 q 57 279 57 137 q 106 527 57 401 q 231 717 155 652 q 399 782 307 782 q 501 756 460 782 q 576 673 542 731 l 582 673 l 618 768 l 758 768 l 758 704 q 847 762 797 741 q 947 782 897 782 q 1118 723 1054 782 q 1182 568 1182 665 q 1076 359 1182 432 q 770 286 969 286 l 729 286 l 729 275 q 840 175 729 175 q 945 191 893 175 q 1063 241 996 206 l 1063 56 q 941 2 998 17 q 808 -14 884 -14 m 775 450 q 891 478 848 450 q 933 553 933 506 q 919 590 933 576 q 876 604 905 604 q 798 556 834 604 q 755 450 762 509 l 775 450 m 383 197 q 474 281 434 197 q 514 473 514 365 q 498 545 514 518 q 451 571 482 571 q 391 532 420 571 q 343 427 361 492 q 325 294 325 361 q 383 197 325 197 z "},"ç":{"ha":700,"x_min":57,"x_max":717,"o":"m 481 574 q 403 541 438 574 q 344 445 368 509 q 321 318 321 380 q 341 226 321 255 q 406 197 361 197 q 597 256 486 197 l 597 47 q 351 -14 490 -12 l 343 -28 q 464 -160 464 -53 q 408 -288 464 -242 q 250 -334 351 -334 q 119 -314 172 -334 l 119 -175 q 173 -187 140 -181 q 222 -193 205 -193 q 268 -160 268 -193 q 170 -92 268 -111 l 220 0 l 243 0 q 132 68 178 20 q 57 294 57 151 q 109 547 57 437 q 254 720 160 657 q 474 782 349 782 q 717 728 599 782 l 633 533 q 481 574 543 574 z "},"è":{"ha":804,"x_min":57,"x_max":774,"o":"m 623 842 l 463 842 q 361 948 410 890 q 291 1050 312 1007 l 291 1064 l 559 1064 q 623 859 578 960 l 623 842 m 361 -14 q 137 66 217 -14 q 57 289 57 146 q 114 547 57 432 q 269 722 170 663 q 496 782 367 782 q 700 724 625 782 q 774 568 774 666 q 668 359 774 432 q 361 286 562 286 l 321 286 l 321 275 q 432 175 321 175 q 536 191 485 175 q 654 241 588 206 l 654 56 q 512 1 576 16 q 361 -14 448 -14 m 367 450 q 483 478 440 450 q 525 553 525 506 q 511 590 525 576 q 468 604 496 604 q 390 556 426 604 q 347 450 354 509 l 367 450 z "},"é":{"ha":804,"x_min":57,"x_max":844,"o":"m 355 842 l 355 857 q 546 1064 437 926 l 844 1064 l 844 1054 q 715 948 814 1018 q 547 842 616 878 l 355 842 m 361 -14 q 137 66 217 -14 q 57 289 57 146 q 114 547 57 432 q 269 722 170 663 q 496 782 367 782 q 700 724 625 782 q 774 568 774 666 q 668 359 774 432 q 361 286 562 286 l 321 286 l 321 275 q 432 175 321 175 q 536 191 485 175 q 654 241 588 206 l 654 56 q 512 1 576 16 q 361 -14 448 -14 m 367 450 q 483 478 440 450 q 525 553 525 506 q 511 590 525 576 q 468 604 496 604 q 390 556 426 604 q 347 450 354 509 l 367 450 z "},"ê":{"ha":804,"x_min":57,"x_max":823,"o":"m 823 842 l 642 842 q 536 960 610 869 q 374 842 442 886 l 188 842 l 188 857 q 301 965 233 899 q 397 1064 368 1032 l 701 1064 q 754 962 718 1024 q 823 857 790 900 l 823 842 m 361 -14 q 137 66 217 -14 q 57 289 57 146 q 114 547 57 432 q 269 722 170 663 q 496 782 367 782 q 700 724 625 782 q 774 568 774 666 q 668 359 774 432 q 361 286 562 286 l 321 286 l 321 275 q 432 175 321 175 q 536 191 485 175 q 654 241 588 206 l 654 56 q 512 1 576 16 q 361 -14 448 -14 m 367 450 q 483 478 440 450 q 525 553 525 506 q 511 590 525 576 q 468 604 496 604 q 390 556 426 604 q 347 450 354 509 l 367 450 z "},"ë":{"ha":804,"x_min":57,"x_max":808,"o":"m 228 939 q 364 1065 228 1065 q 479 981 479 1065 q 343 852 479 852 q 256 873 283 852 q 228 939 228 895 m 558 939 q 694 1065 558 1065 q 808 981 808 1065 q 673 852 808 852 q 586 873 614 852 q 558 939 558 895 m 361 -14 q 137 66 217 -14 q 57 289 57 146 q 114 547 57 432 q 269 722 170 663 q 496 782 367 782 q 700 724 625 782 q 774 568 774 666 q 668 359 774 432 q 361 286 562 286 l 321 286 l 321 275 q 432 175 321 175 q 536 191 485 175 q 654 241 588 206 l 654 56 q 512 1 576 16 q 361 -14 448 -14 m 367 450 q 483 478 440 450 q 525 553 525 506 q 511 590 525 576 q 468 604 496 604 q 390 556 426 604 q 347 450 354 509 l 367 450 z "},"ì":{"ha":452,"x_min":16,"x_max":446,"o":"m 446 842 l 286 842 q 183 948 233 890 q 113 1050 134 1007 l 113 1064 l 382 1064 q 446 859 401 960 l 446 842 m 16 0 l 178 768 l 441 768 l 278 0 l 16 0 z "},"í":{"ha":452,"x_min":16,"x_max":688,"o":"m 199 842 l 199 857 q 391 1064 282 926 l 688 1064 l 688 1054 q 559 948 659 1018 q 392 842 460 878 l 199 842 m 178 768 l 441 768 l 278 0 l 16 0 l 178 768 z "},"î":{"ha":452,"x_min":-5,"x_max":630,"o":"m 630 842 l 450 842 q 344 960 418 869 q 181 842 250 886 l -5 842 l -5 857 q 108 965 41 899 q 205 1064 176 1032 l 508 1064 q 561 962 525 1024 q 630 857 597 900 l 630 842 m 178 768 l 441 768 l 278 0 l 16 0 l 178 768 z "},"ï":{"ha":452,"x_min":16,"x_max":642,"o":"m 62 939 q 198 1065 62 1065 q 313 981 313 1065 q 177 852 313 852 q 90 873 117 852 q 62 939 62 895 m 392 939 q 528 1065 392 1065 q 642 981 642 1065 q 507 852 642 852 q 420 873 448 852 q 392 939 392 895 m 178 768 l 441 768 l 278 0 l 16 0 l 178 768 z "},"ñ":{"ha":864,"x_min":16,"x_max":830,"o":"m 608 840 q 496 876 563 840 q 410 907 446 907 q 368 888 388 907 q 344 839 348 869 l 216 839 q 290 1014 238 956 q 429 1071 342 1071 q 469 1066 452 1071 q 533 1038 486 1062 q 623 1004 592 1004 q 701 1072 676 1004 l 830 1072 q 753 898 807 955 q 612 840 700 840 q 608 840 610 840 m 521 419 q 533 508 533 472 q 518 558 533 543 q 482 574 504 574 q 410 524 442 574 q 357 375 377 475 l 278 0 l 16 0 l 178 768 l 387 768 l 379 661 l 385 661 q 472 753 421 725 q 596 782 522 782 q 745 724 692 782 q 799 564 799 666 q 782 408 799 490 l 696 0 l 433 0 l 521 419 z "},"ò":{"ha":843,"x_min":57,"x_max":786,"o":"m 606 842 l 446 842 q 344 948 393 890 q 274 1050 295 1007 l 274 1064 l 543 1064 q 606 859 562 960 l 606 842 m 732 229 q 705 171 732 229 q 580 50 678 113 q 346 -14 481 -14 q 134 63 211 -14 q 57 282 57 140 q 111 541 57 425 q 263 719 165 656 q 496 782 361 782 q 709 705 632 782 q 786 487 786 629 q 732 229 786 345 m 460 585 q 365 490 404 585 q 325 273 325 396 q 382 183 325 183 q 477 277 437 183 q 518 494 518 372 q 503 562 518 538 q 460 585 487 585 z "},"ó":{"ha":843,"x_min":57,"x_max":850,"o":"m 361 842 l 361 857 q 553 1064 444 926 l 850 1064 l 850 1054 q 722 948 821 1018 q 554 842 623 878 l 361 842 m 732 229 q 705 171 732 229 q 580 50 678 113 q 346 -14 481 -14 q 134 63 211 -14 q 57 282 57 140 q 111 541 57 425 q 263 719 165 656 q 496 782 361 782 q 709 705 632 782 q 786 487 786 629 q 732 229 786 345 m 460 585 q 365 490 404 585 q 325 273 325 396 q 382 183 325 183 q 477 277 437 183 q 518 494 518 372 q 503 562 518 538 q 460 585 487 585 z "},"ô":{"ha":843,"x_min":57,"x_max":802,"o":"m 802 842 l 622 842 q 516 960 590 869 q 353 842 422 886 l 168 842 l 168 857 q 280 965 213 899 q 377 1064 348 1032 l 680 1064 q 733 962 697 1024 q 802 857 770 900 l 802 842 m 732 229 q 705 171 732 229 q 580 50 678 113 q 346 -14 481 -14 q 134 63 211 -14 q 57 282 57 140 q 111 541 57 425 q 263 719 165 656 q 496 782 361 782 q 709 705 632 782 q 786 487 786 629 q 732 229 786 345 m 460 585 q 365 490 404 585 q 325 273 325 396 q 382 183 325 183 q 477 277 437 183 q 518 494 518 372 q 503 562 518 538 q 460 585 487 585 z "},"õ":{"ha":843,"x_min":57,"x_max":802,"o":"m 579 840 q 467 876 534 840 q 381 907 418 907 q 339 888 359 907 q 315 839 319 869 l 188 839 q 262 1014 210 956 q 400 1071 314 1071 q 441 1066 424 1071 q 505 1038 458 1062 q 595 1004 564 1004 q 673 1072 648 1004 l 802 1072 q 725 898 779 955 q 584 840 671 840 q 579 840 582 840 m 732 229 q 705 171 732 229 q 580 50 678 113 q 346 -14 481 -14 q 134 63 211 -14 q 57 282 57 140 q 111 541 57 425 q 263 719 165 656 q 496 782 361 782 q 709 705 632 782 q 786 487 786 629 q 732 229 786 345 m 460 585 q 365 490 404 585 q 325 273 325 396 q 382 183 325 183 q 477 277 437 183 q 518 494 518 372 q 503 562 518 538 q 460 585 487 585 z "},"ö":{"ha":843,"x_min":57,"x_max":795,"o":"m 215 939 q 351 1065 215 1065 q 467 981 467 1065 q 330 852 467 852 q 243 873 271 852 q 215 939 215 895 m 545 939 q 682 1065 545 1065 q 795 981 795 1065 q 661 852 795 852 q 573 873 601 852 q 545 939 545 895 m 732 229 q 705 171 732 229 q 580 50 678 113 q 346 -14 481 -14 q 134 63 211 -14 q 57 282 57 140 q 111 541 57 425 q 263 719 165 656 q 496 782 361 782 q 709 705 632 782 q 786 487 786 629 q 732 229 786 345 m 460 585 q 365 490 404 585 q 325 273 325 396 q 382 183 325 183 q 477 277 437 183 q 518 494 518 372 q 503 562 518 538 q 460 585 487 585 z "},"÷":{"ha":786,"x_min":69,"x_max":730,"o":"m 399 610 q 375 610 399 610 q 321 641 350 610 q 293 727 293 672 q 321 813 293 783 q 399 843 349 843 q 478 813 450 843 q 505 727 505 783 q 477 641 505 671 q 399 610 449 610 m 69 582 l 730 582 l 730 397 l 69 397 l 69 582 m 399 136 q 375 136 399 136 q 321 168 350 136 q 293 254 293 199 q 321 339 293 309 q 399 370 349 370 q 478 339 450 370 q 505 254 505 309 q 477 167 505 198 q 399 136 449 136 z "},"ø":{"ha":872,"x_min":45,"x_max":831,"o":"m 815 486 q 760 230 815 345 q 605 51 705 115 q 372 -14 504 -14 q 211 20 286 -14 l 131 -75 l 45 -1 l 121 87 q 57 282 57 166 q 112 539 57 423 q 269 718 168 654 q 504 782 370 782 q 673 743 596 782 l 745 825 l 831 751 l 760 668 q 815 486 815 591 m 472 595 q 355 511 406 595 q 304 306 304 427 l 532 575 q 476 595 508 595 q 472 595 474 595 m 400 176 q 517 245 473 176 q 567 440 561 315 l 351 186 q 400 176 372 176 z "},"ù":{"ha":864,"x_min":65,"x_max":848,"o":"m 612 842 l 452 842 q 350 948 399 890 q 279 1050 300 1007 l 279 1064 l 548 1064 q 612 859 567 960 l 612 842 m 343 350 q 330 261 330 296 q 345 211 330 226 q 382 196 359 196 q 454 249 422 196 q 507 395 487 302 l 586 768 l 848 768 l 686 0 l 476 0 l 485 107 l 479 107 q 392 15 443 44 q 268 -14 342 -14 q 119 44 172 -14 q 65 204 65 102 q 82 359 65 277 l 168 768 l 431 768 l 343 350 z "},"ú":{"ha":864,"x_min":65,"x_max":885,"o":"m 396 842 l 396 857 q 587 1064 479 926 l 885 1064 l 885 1054 q 756 948 855 1018 q 589 842 657 878 l 396 842 m 343 350 q 330 261 330 296 q 345 211 330 226 q 382 196 359 196 q 454 249 422 196 q 507 395 487 302 l 586 768 l 848 768 l 686 0 l 476 0 l 485 107 l 479 107 q 392 15 443 44 q 268 -14 342 -14 q 119 44 172 -14 q 65 204 65 102 q 82 359 65 277 l 168 768 l 431 768 l 343 350 z "},"û":{"ha":864,"x_min":65,"x_max":848,"o":"m 828 842 l 648 842 q 542 960 616 869 q 379 842 448 886 l 193 842 l 193 857 q 306 965 239 899 q 403 1064 374 1032 l 706 1064 q 759 962 723 1024 q 828 857 795 900 l 828 842 m 343 350 q 330 261 330 296 q 345 211 330 226 q 382 196 359 196 q 454 249 422 196 q 507 395 487 302 l 586 768 l 848 768 l 686 0 l 476 0 l 485 107 l 479 107 q 392 15 443 44 q 268 -14 342 -14 q 119 44 172 -14 q 65 204 65 102 q 82 359 65 277 l 168 768 l 431 768 l 343 350 z "},"ü":{"ha":864,"x_min":65,"x_max":848,"o":"m 252 939 q 388 1065 252 1065 q 503 981 503 1065 q 367 852 503 852 q 279 873 307 852 q 252 939 252 895 m 582 939 q 718 1065 582 1065 q 832 981 832 1065 q 697 852 832 852 q 610 873 637 852 q 582 939 582 895 m 343 350 q 330 261 330 296 q 345 211 330 226 q 382 196 359 196 q 454 249 422 196 q 507 395 487 302 l 586 768 l 848 768 l 686 0 l 476 0 l 485 107 l 479 107 q 392 15 443 44 q 268 -14 342 -14 q 119 44 172 -14 q 65 204 65 102 q 82 359 65 277 l 168 768 l 431 768 l 343 350 z "},"ÿ":{"ha":755,"x_min":-87,"x_max":833,"o":"m 176 939 q 312 1065 176 1065 q 427 981 427 1065 q 291 852 427 852 q 203 873 231 852 q 176 939 176 895 m 506 939 q 642 1065 506 1065 q 756 981 756 1065 q 621 852 756 852 q 534 873 562 852 q 506 939 506 895 m 350 286 l 355 286 q 393 408 382 381 q 551 768 404 435 l 833 768 l 379 -97 q 228 -278 314 -222 q 17 -334 142 -334 q -87 -322 -45 -334 l -87 -114 q -5 -122 -56 -122 q 83 -98 45 -122 q 150 -20 121 -73 l 165 8 l 56 768 l 319 768 l 349 387 l 350 345 l 350 286 z "},"ı":{"ha":452,"x_min":16,"x_max":441,"o":"m 16 0 l 178 768 l 441 768 l 278 0 l 16 0 z "},"Œ":{"ha":1295,"x_min":71,"x_max":1335,"o":"m 439 -14 q 168 85 265 -14 q 71 358 71 186 q 110 615 71 492 q 221 827 149 739 q 393 961 294 916 q 612 1007 492 1007 q 742 991 674 1007 l 1335 991 l 1289 775 l 965 775 l 933 623 l 1235 623 l 1186 404 l 885 404 l 846 220 l 1169 220 l 1125 0 l 572 0 q 439 -14 500 -14 m 694 754 q 592 787 659 787 q 466 728 525 787 q 373 567 407 667 q 339 357 339 468 q 463 210 339 210 q 585 237 527 210 l 694 754 z "},"œ":{"ha":1222,"x_min":57,"x_max":1192,"o":"m 779 -14 q 579 62 641 -14 q 353 -14 495 -14 q 134 63 211 -14 q 57 282 57 140 q 111 541 57 425 q 258 719 164 656 q 477 782 353 782 q 663 697 602 782 q 916 782 761 782 q 1117 724 1042 782 q 1192 568 1192 665 q 1085 358 1192 431 q 779 286 979 286 l 739 286 l 739 275 q 850 175 739 175 q 954 191 903 175 q 1072 241 1006 206 l 1072 56 q 931 2 997 17 q 779 -14 865 -14 m 785 450 q 901 478 859 450 q 943 553 943 505 q 929 590 943 576 q 886 604 914 604 q 810 558 846 604 q 765 450 774 513 l 785 450 m 460 585 q 365 490 404 585 q 325 273 325 396 q 382 183 325 183 q 477 277 437 183 q 518 494 518 372 q 503 562 518 538 q 460 585 487 585 z "},"Ÿ":{"ha":839,"x_min":111,"x_max":953,"o":"m 269 1168 q 406 1295 269 1295 q 521 1210 521 1295 q 385 1082 521 1082 q 297 1103 325 1082 q 269 1168 269 1124 m 600 1168 q 736 1295 600 1295 q 850 1210 850 1295 q 715 1082 850 1082 q 627 1103 655 1082 q 600 1168 600 1124 m 953 991 l 538 385 l 456 0 l 191 0 l 272 385 l 111 991 l 385 991 l 446 624 l 657 991 l 953 991 z "},"ƒ":{"ha":806,"x_min":-36,"x_max":804,"o":"m 104 -334 q -36 -315 30 -334 l -36 -107 q 43 -119 1 -119 q 155 -35 138 -119 l 268 500 l 165 500 l 192 637 l 313 699 l 326 758 q 427 946 355 886 q 624 1006 498 1006 q 804 966 724 1006 l 733 775 q 643 798 688 798 q 587 754 597 798 l 575 701 l 717 701 l 672 500 l 532 500 l 408 -79 q 304 -269 382 -204 q 104 -334 227 -334 z "},"ˆ":{"ha":770,"x_min":172,"x_max":807,"o":"m 807 842 l 627 842 q 521 960 595 869 q 358 842 426 886 l 172 842 l 172 857 q 285 965 218 899 q 382 1064 353 1032 l 685 1064 q 739 962 703 1024 q 807 857 774 900 l 807 842 z "},"ˇ":{"ha":770,"x_min":218,"x_max":852,"o":"m 218 1064 l 399 1064 q 504 946 426 1040 q 667 1064 598 1020 l 852 1064 l 852 1048 q 643 842 762 972 l 340 842 q 281 954 317 892 q 218 1048 244 1015 l 218 1064 z "},"˘":{"ha":770,"x_min":271,"x_max":821,"o":"m 513 842 q 335 898 399 842 q 271 1055 271 955 q 277 1093 271 1081 l 424 1093 q 453 1028 424 1050 q 534 1006 483 1006 q 671 1093 642 1006 l 821 1093 q 724 904 800 966 q 513 842 648 842 z "},"˙":{"ha":461,"x_min":216,"x_max":500,"o":"m 216 937 q 371 1079 216 1079 q 500 983 500 1079 q 346 842 500 842 q 216 937 216 842 z "},"˚":{"ha":802,"x_min":354,"x_max":718,"o":"m 354 1009 q 354 1048 354 1009 q 404 1135 354 1087 q 534 1182 453 1182 q 667 1134 616 1182 q 718 1010 718 1086 q 668 887 718 935 q 536 839 618 839 q 404 885 454 839 q 354 1009 354 932 m 535 953 q 549 953 535 953 q 579 969 562 953 q 596 1010 596 986 q 578 1052 596 1035 q 536 1068 561 1068 q 494 1052 511 1068 q 476 1010 476 1035 q 492 969 476 985 q 535 953 509 953 z "},"˛":{"ha":307,"x_min":-129,"x_max":189,"o":"m 60 -167 q 69 -191 60 -181 q 96 -201 79 -201 q 175 -184 128 -201 l 175 -335 q 37 -355 111 -355 q -83 -315 -37 -355 q -129 -212 -129 -274 q -95 -100 -129 -150 q 18 0 -60 -51 l 189 0 q 102 -77 127 -50 q 60 -167 60 -125 z "},"˜":{"ha":770,"x_min":204,"x_max":818,"o":"m 595 840 q 484 876 551 840 q 397 907 433 907 q 356 888 376 907 q 332 839 336 869 l 204 839 q 278 1014 226 956 q 416 1071 330 1071 q 457 1066 440 1071 q 521 1038 474 1062 q 611 1004 580 1004 q 689 1072 664 1004 l 818 1072 q 741 898 795 955 q 600 840 688 840 q 595 840 598 840 z "},"˝":{"ha":770,"x_min":143,"x_max":850,"o":"m 143 842 l 143 861 q 219 959 174 898 q 290 1064 264 1020 l 542 1064 l 542 1050 q 281 842 513 1002 l 143 842 m 850 1064 l 850 1050 q 595 842 817 995 l 457 842 l 457 861 l 490 907 q 597 1064 568 1011 l 850 1064 z "},"ְ":{"ha":0,"x_min":345,"x_max":510,"o":"m 408 -84 q 457 -68 428 -68 q 498 -82 487 -68 q 510 -108 510 -96 q 482 -170 510 -149 q 432 -186 462 -186 q 391 -173 403 -186 q 380 -148 380 -159 q 408 -84 380 -106 m 373 -248 q 423 -232 393 -232 q 464 -245 452 -232 q 475 -271 475 -259 q 448 -334 475 -312 q 398 -349 427 -349 q 357 -336 368 -349 q 345 -311 345 -323 q 373 -248 345 -270 z "},"ֱ":{"ha":0,"x_min":209,"x_max":720,"o":"m 237 -95 q 286 -79 257 -79 q 327 -92 315 -79 q 339 -118 339 -106 q 311 -180 339 -159 q 261 -196 290 -196 q 220 -183 232 -196 q 209 -158 209 -170 q 237 -95 209 -116 m 437 -94 q 487 -79 458 -79 q 529 -93 517 -79 q 541 -119 541 -106 q 513 -180 541 -159 q 462 -196 492 -196 q 421 -183 432 -196 q 410 -159 410 -170 q 437 -94 410 -115 m 618 -95 q 668 -79 638 -79 q 709 -92 697 -79 q 720 -118 720 -106 q 692 -180 720 -159 q 643 -196 672 -196 q 602 -183 613 -196 q 590 -158 590 -170 q 618 -95 590 -116 m 305 -258 q 355 -242 326 -242 q 395 -256 384 -242 q 407 -281 407 -269 q 379 -343 407 -322 q 329 -359 359 -359 q 289 -346 300 -359 q 277 -321 277 -333 q 305 -258 277 -279 m 583 -258 q 633 -242 604 -242 q 674 -256 663 -242 q 686 -281 686 -269 q 658 -343 686 -322 q 608 -359 637 -359 q 567 -346 578 -359 q 555 -321 555 -333 q 583 -258 555 -280 z "},"ֲ":{"ha":0,"x_min":248,"x_max":690,"o":"m 588 -94 q 598 -86 588 -94 q 637 -79 608 -79 q 678 -92 667 -79 q 690 -118 690 -106 q 662 -180 690 -159 q 612 -196 642 -196 q 571 -183 583 -196 q 560 -158 560 -170 q 562 -138 560 -146 q 588 -94 568 -110 m 496 -176 l 248 -176 l 264 -96 l 513 -96 l 496 -176 m 553 -258 q 603 -242 574 -242 q 644 -256 632 -242 q 655 -281 655 -269 q 627 -343 655 -322 q 577 -359 607 -359 q 537 -346 548 -359 q 526 -321 526 -333 q 553 -258 526 -279 z "},"ֳ":{"ha":0,"x_min":248,"x_max":692,"o":"m 590 -95 q 640 -79 610 -79 q 681 -92 669 -79 q 692 -118 692 -106 q 665 -180 692 -159 q 615 -196 644 -196 q 574 -183 585 -196 q 562 -158 562 -170 q 590 -95 562 -116 m 496 -176 l 410 -176 l 380 -313 l 305 -313 l 334 -176 l 248 -176 l 264 -96 l 513 -96 l 496 -176 m 555 -258 q 605 -242 576 -242 q 646 -256 635 -242 q 658 -281 658 -269 q 630 -343 658 -322 q 580 -359 610 -359 q 539 -346 551 -359 q 528 -321 528 -333 q 555 -258 528 -280 z "},"ִ":{"ha":0,"x_min":360,"x_max":492,"o":"m 388 -91 q 438 -75 408 -75 q 479 -89 467 -75 q 492 -115 492 -103 q 464 -176 492 -155 q 413 -193 443 -193 q 372 -180 383 -193 q 360 -155 360 -167 q 388 -91 360 -112 z "},"ֵ":{"ha":0,"x_min":260,"x_max":593,"o":"m 288 -78 q 298 -70 288 -78 q 338 -62 309 -62 q 378 -76 367 -62 q 390 -102 390 -90 q 363 -164 390 -142 q 313 -180 342 -180 q 272 -166 283 -180 q 260 -141 260 -153 q 262 -121 260 -130 q 288 -78 268 -94 m 463 -121 q 488 -78 468 -94 q 538 -62 509 -62 q 581 -76 568 -62 q 593 -102 593 -90 q 565 -164 593 -142 q 514 -180 544 -180 q 472 -166 484 -180 q 460 -141 460 -153 q 463 -121 460 -130 z "},"ֶ":{"ha":0,"x_min":278,"x_max":610,"o":"m 306 -94 q 316 -86 306 -94 q 355 -79 326 -79 q 396 -92 385 -79 q 408 -118 408 -106 q 380 -180 408 -159 q 330 -196 359 -196 q 289 -183 300 -196 q 278 -158 278 -170 q 280 -138 278 -146 q 306 -94 286 -110 m 506 -94 q 556 -79 526 -79 q 598 -93 586 -79 q 610 -119 610 -106 q 582 -180 610 -159 q 531 -196 561 -196 q 490 -183 501 -196 q 478 -158 478 -170 q 506 -94 478 -115 m 374 -258 q 424 -242 394 -242 q 465 -256 453 -242 q 476 -281 476 -269 q 448 -343 476 -322 q 398 -359 428 -359 q 357 -346 369 -359 q 346 -321 346 -333 q 374 -258 346 -280 z "},"ַ":{"ha":0,"x_min":285,"x_max":568,"o":"m 551 -159 l 285 -159 l 301 -80 l 568 -80 l 551 -159 z "},"ָ":{"ha":0,"x_min":303,"x_max":579,"o":"m 562 -173 l 470 -173 l 441 -310 l 366 -310 l 395 -173 l 303 -173 l 320 -94 l 579 -94 l 562 -173 z "},"ֹ":{"ha":0,"x_min":361,"x_max":492,"o":"m 389 1058 q 438 1074 409 1074 q 480 1060 468 1074 q 492 1034 492 1046 q 465 972 492 994 q 414 956 444 956 q 372 969 384 956 q 361 994 361 982 q 389 1058 361 1037 z "},"ֺ":{"ha":0,"x_min":361,"x_max":492,"o":"m 389 1058 q 438 1074 409 1074 q 480 1060 468 1074 q 492 1034 492 1046 q 465 972 492 994 q 414 956 444 956 q 372 969 384 956 q 361 994 361 982 q 389 1058 361 1037 z "},"ֻ":{"ha":0,"x_min":291,"x_max":620,"o":"m 319 -102 q 368 -86 339 -86 q 409 -100 397 -86 q 420 -125 420 -113 q 393 -188 420 -167 q 343 -203 372 -203 q 302 -190 313 -203 q 291 -165 291 -177 q 319 -102 291 -123 m 416 -221 q 466 -205 436 -205 q 507 -219 495 -205 q 518 -245 518 -233 q 491 -307 518 -286 q 441 -323 471 -323 q 400 -310 412 -323 q 388 -285 388 -296 q 416 -221 388 -243 m 516 -340 q 566 -324 536 -324 q 608 -338 595 -324 q 620 -364 620 -352 q 591 -426 620 -404 q 541 -441 570 -441 q 499 -429 511 -441 q 488 -404 488 -416 q 516 -340 488 -361 z "},"ּ":{"ha":0,"x_min":360,"x_max":492,"o":"m 388 488 q 438 504 408 504 q 479 490 467 504 q 492 464 492 476 q 464 403 492 424 q 413 387 443 387 q 372 399 383 387 q 360 425 360 412 q 388 488 360 467 z "},"ֽ":{"ha":852,"x_min":366,"x_max":486,"o":"m 435 -345 l 366 -345 l 416 -106 l 486 -106 l 435 -345 z "},"־":{"ha":441,"x_min":7,"x_max":435,"o":"m 390 666 l 7 666 l 52 878 l 435 878 l 390 666 z "},"ׁ":{"ha":0,"x_min":325,"x_max":456,"o":"m 353 1058 q 402 1074 373 1074 q 444 1060 432 1074 q 456 1034 456 1046 q 429 972 456 994 q 378 956 408 956 q 336 969 348 956 q 325 994 325 982 q 353 1058 325 1037 z "},"ׂ":{"ha":0,"x_min":361,"x_max":492,"o":"m 389 1058 q 438 1074 409 1074 q 480 1060 468 1074 q 492 1034 492 1046 q 465 972 492 994 q 414 956 444 956 q 372 969 384 956 q 361 994 361 982 q 389 1058 361 1037 z "},"ׇ":{"ha":0,"x_min":85,"x_max":377,"o":"m 363 -142 l 254 -142 l 220 -301 l 157 -301 l 191 -142 l 85 -142 l 99 -75 l 377 -75 l 363 -142 z "},"א":{"ha":935,"x_min":-15,"x_max":947,"o":"m 947 878 l 879 559 q 802 391 857 450 q 744 344 780 367 q 663 305 709 321 q 792 0 748 103 l 498 0 l 345 396 q 316 321 328 376 l 248 0 l -15 0 l 53 319 q 74 392 62 360 q 110 460 86 424 q 271 574 159 534 q 142 878 168 818 l 435 878 l 547 581 l 589 484 q 615 557 605 508 l 684 878 l 947 878 z "},"ב":{"ha":811,"x_min":-39,"x_max":741,"o":"m 689 827 q 724 781 712 806 q 738 732 736 756 q 739 690 739 707 q 723 569 739 644 l 645 203 l 741 203 l 697 0 l -39 0 l 4 203 l 382 203 l 457 557 q 462 599 462 580 q 351 688 462 688 q 146 677 267 688 l 104 673 l 146 874 q 427 892 233 892 q 689 827 621 892 z "},"ג":{"ha":667,"x_min":-60,"x_max":627,"o":"m 214 870 q 372 892 304 892 q 481 884 441 892 q 548 864 521 877 q 591 831 574 851 q 627 720 627 789 q 613 612 627 680 l 483 0 l 286 0 l 271 123 l 259 123 q 217 79 245 106 q 163 34 189 52 q 98 1 137 16 q 31 -14 59 -14 q -60 0 -12 -14 l 12 233 q 97 222 56 222 q 227 259 171 222 q 299 372 282 295 l 347 600 q 352 637 352 621 q 309 684 352 684 q 189 669 249 684 l 170 665 l 214 870 z "},"ד":{"ha":770,"x_min":71,"x_max":850,"o":"m 850 878 l 810 692 q 708 634 739 667 q 661 528 677 601 l 549 0 l 286 0 l 399 533 q 492 675 418 623 l 71 675 l 115 878 l 850 878 z "},"ה":{"ha":915,"x_min":-3,"x_max":867,"o":"m 818 823 q 852 774 841 800 q 866 723 864 748 q 867 680 867 699 q 850 557 867 635 l 732 0 l 468 0 l 587 557 q 591 599 591 580 q 481 688 591 688 q 195 671 361 688 l 138 665 l 181 866 q 549 892 348 892 q 818 823 751 892 m 260 0 l -3 0 l 106 512 l 369 512 l 260 0 z "},"ו":{"ha":446,"x_min":-2,"x_max":448,"o":"m 261 0 l -2 0 l 185 878 l 448 878 l 261 0 z "},"ז":{"ha":496,"x_min":-1,"x_max":574,"o":"m 574 878 l 533 689 q 458 620 493 662 q 403 540 424 577 q 368 458 382 503 q 326 302 345 389 l 262 0 l -1 0 l 63 302 q 287 675 117 555 l 113 675 l 156 878 l 574 878 z "},"ח":{"ha":915,"x_min":-3,"x_max":869,"o":"m 551 892 q 839 805 783 892 q 869 695 869 760 q 850 557 869 631 l 732 0 l 468 0 l 587 557 q 591 599 591 580 q 481 688 591 688 q 406 686 446 688 l 260 0 l -3 0 l 181 866 q 551 892 348 892 z "},"ט":{"ha":916,"x_min":75,"x_max":886,"o":"m 538 883 q 649 892 597 892 q 747 879 701 892 q 875 755 848 852 q 886 659 886 715 q 861 451 886 574 q 685 109 814 231 q 368 -13 557 -13 q 189 42 262 -13 q 88 201 116 98 q 75 312 75 250 q 91 451 75 374 l 182 878 l 446 878 l 355 451 q 338 317 338 372 q 419 197 338 197 q 524 257 481 197 q 596 451 568 317 q 614 575 614 535 q 608 633 614 614 q 528 684 593 684 l 494 680 l 538 883 z "},"י":{"ha":431,"x_min":52,"x_max":441,"o":"m 354 469 l 169 284 l 52 284 l 178 878 l 441 878 l 354 469 z "},"ך":{"ha":751,"x_min":72,"x_max":694,"o":"m 395 892 q 607 833 536 892 q 690 686 676 775 q 694 630 694 653 q 680 494 694 564 l 505 -334 l 242 -334 l 418 496 q 429 569 429 547 q 426 612 429 591 q 408 650 422 634 q 294 687 376 687 q 106 678 206 687 l 72 675 l 116 881 q 395 892 233 892 z "},"כ":{"ha":749,"x_min":-47,"x_max":718,"o":"m 418 892 q 630 833 560 892 q 713 686 701 774 q 718 630 718 653 q 704 494 718 564 l 680 383 q 647 265 667 318 q 591 158 627 212 q 508 68 555 104 q 388 9 460 32 q 225 -14 315 -14 q -47 5 47 -14 l -4 210 q 245 198 99 198 q 358 247 318 198 q 417 383 399 296 l 441 496 q 452 568 452 546 q 449 612 452 591 q 431 650 445 634 q 389 676 417 666 q 317 687 360 687 q 129 678 229 687 l 95 675 l 138 881 q 418 892 256 892 z "},"ל":{"ha":767,"x_min":87,"x_max":836,"o":"m 393 878 l 836 878 l 802 718 l 603 326 l 604 327 l 460 0 l 201 0 l 349 336 l 523 675 l 87 675 l 168 1052 l 431 1052 l 393 878 z "},"ם":{"ha":915,"x_min":-3,"x_max":870,"o":"m 181 866 q 549 891 348 891 q 821 824 750 891 q 870 690 870 779 q 859 599 870 649 l 732 0 l -3 0 l 181 866 m 600 627 q 577 670 600 656 q 481 688 547 688 l 406 685 l 303 203 l 511 203 l 597 607 q 600 627 600 618 z "},"מ":{"ha":966,"x_min":-37,"x_max":910,"o":"m 394 878 q 405 789 409 838 l 414 789 q 594 880 491 854 q 694 892 638 892 q 797 872 750 892 q 869 818 844 852 q 910 661 910 763 q 888 494 910 593 l 783 0 l 359 0 l 402 203 l 559 203 l 621 494 q 632 627 641 593 q 593 677 622 666 q 545 683 576 683 q 476 660 514 683 q 419 615 438 637 l 399 593 l 222 0 l -37 0 l 132 555 q 171 781 171 672 q 163 878 171 829 l 394 878 z "},"ן":{"ha":420,"x_min":-94,"x_max":383,"o":"m 380 878 q 383 821 383 851 q 379 715 383 790 q 357 557 374 640 l 170 -321 l -94 -321 l 93 557 q 121 806 121 684 q 119 840 121 826 l 116 878 l 380 878 z "},"נ":{"ha":614,"x_min":-46,"x_max":570,"o":"m 180 881 q 320 892 237 892 q 451 876 404 892 q 524 834 498 861 q 570 699 570 787 q 558 599 570 656 l 489 275 q 453 142 475 211 q 416 37 431 73 l 400 0 l -46 0 l -3 203 l 203 203 q 226 275 218 236 l 295 599 q 298 638 298 620 q 284 670 297 657 q 250 684 272 684 q 155 677 204 684 l 136 675 l 180 881 z "},"ס":{"ha":887,"x_min":41,"x_max":846,"o":"m 160 876 q 539 892 355 892 q 798 773 722 892 q 846 586 846 699 q 829 439 846 519 q 655 106 783 226 q 345 -13 527 -13 q 87 105 162 -13 q 41 289 41 178 q 58 439 41 357 q 189 673 90 584 l 116 669 l 160 876 m 579 571 q 496 688 579 688 l 443 685 q 325 439 356 590 q 308 309 308 361 q 392 196 308 196 q 495 255 454 196 q 562 439 536 314 q 579 571 579 517 z "},"ע":{"ha":891,"x_min":-64,"x_max":931,"o":"m 931 878 l 814 492 q 732 296 779 372 q 249 0 584 51 l -64 -47 l -20 161 l 197 193 l 157 878 l 420 878 l 446 497 l 443 277 q 549 479 506 337 l 669 878 l 931 878 z "},"ף":{"ha":888,"x_min":53,"x_max":822,"o":"m 76 386 q 58 434 64 408 q 53 476 53 459 q 53 514 53 494 q 62 575 54 534 q 113 702 77 646 q 194 793 149 758 q 296 850 239 828 q 515 892 397 892 q 727 833 650 892 q 779 776 755 811 q 822 597 822 708 q 804 439 822 525 l 640 -334 l 373 -334 l 537 439 q 559 591 559 541 q 543 653 559 627 q 470 682 526 682 q 412 673 438 682 q 372 652 387 664 q 348 625 358 641 q 330 582 335 604 q 327 547 327 562 q 333 521 327 532 q 346 502 340 509 q 361 489 352 494 q 391 477 377 480 l 444 466 l 362 279 l 297 281 q 76 386 130 287 z "},"פ":{"ha":887,"x_min":42,"x_max":847,"o":"m 83 434 q 78 477 78 460 q 78 514 78 494 q 87 575 79 534 q 138 702 102 646 q 219 793 174 758 q 320 850 264 828 q 540 892 422 892 q 752 833 675 892 q 803 776 781 811 q 847 597 847 708 q 826 427 847 525 q 767 248 806 330 q 684 117 729 166 q 582 38 640 68 q 468 -3 524 7 q 337 -14 413 -14 q 186 -9 262 -14 q 76 1 110 -4 l 42 6 l 85 205 q 391 190 236 190 q 480 229 447 190 q 509 270 497 249 q 532 323 522 290 q 548 379 542 356 q 562 439 553 403 q 583 583 583 535 q 568 645 583 613 q 495 682 552 682 q 426 670 456 682 q 382 638 397 657 q 355 582 359 606 q 362 513 345 547 q 416 477 375 488 l 469 466 l 387 277 l 321 281 q 128 350 186 290 q 83 434 94 385 z "},"ץ":{"ha":823,"x_min":35,"x_max":864,"o":"m 451 283 l 430 283 l 298 -334 l 35 -334 l 190 395 l 100 878 l 383 878 l 444 469 l 450 469 q 505 493 484 469 q 536 569 525 516 l 602 878 l 864 878 l 796 559 q 772 479 787 516 q 729 405 757 442 q 665 342 702 368 q 573 300 629 316 q 451 283 518 283 z "},"צ":{"ha":886,"x_min":-43,"x_max":931,"o":"m 931 878 l 877 701 q 814 542 846 598 q 726 418 766 458 q 648 347 686 377 l 771 149 l 739 0 l -43 0 l 1 203 l 357 203 l 453 197 l 335 397 l 124 878 l 414 878 l 553 540 q 609 676 585 596 l 669 878 l 931 878 z "},"ק":{"ha":941,"x_min":-71,"x_max":1009,"o":"m 977 726 l 754 349 q 623 41 650 171 l 614 0 l 353 0 l 361 41 q 410 190 372 94 q 488 355 448 286 l 677 675 l 143 675 l 186 878 l 1009 878 l 977 726 m 192 -334 l -71 -334 l 112 529 l 375 529 l 192 -334 z "},"ר":{"ha":764,"x_min":83,"x_max":715,"o":"m 126 878 q 368 892 267 892 q 520 884 468 892 q 608 861 572 876 q 666 824 644 847 q 701 774 689 800 q 714 723 712 748 q 715 680 715 699 q 699 557 715 635 l 580 0 l 317 0 l 435 557 q 440 599 440 580 q 330 688 440 688 q 83 673 231 688 l 126 878 z "},"ש":{"ha":1096,"x_min":39,"x_max":1141,"o":"m 424 0 l 39 0 l 152 878 l 408 878 l 355 470 q 418 517 390 470 q 437 562 429 536 l 532 878 l 785 878 l 692 566 q 544 342 647 413 q 429 292 491 307 q 341 283 386 283 l 330 283 l 321 203 l 498 203 q 653 270 583 203 q 767 484 723 336 l 885 878 l 1141 878 l 1019 477 q 810 123 947 239 q 526 5 693 24 q 424 0 478 0 z "},"ת":{"ha":975,"x_min":-56,"x_max":930,"o":"m 612 891 q 901 806 844 891 q 930 697 930 760 q 913 568 930 635 l 793 0 l 529 0 l 648 557 q 652 598 652 579 q 543 688 652 688 q 495 687 509 688 l 406 268 q 379 178 395 218 q 337 101 363 138 q 273 40 310 64 q 62 -13 194 -13 q 2 -6 32 -13 q -42 8 -27 1 l -56 16 l -16 205 q 68 195 33 195 q 119 212 104 195 q 142 268 134 229 l 229 671 l 133 664 l 176 866 q 612 891 409 891 z "},"׳":{"ha":347,"x_min":64,"x_max":433,"o":"m 64 535 q 192 875 106 637 l 428 875 l 433 860 q 260 535 372 719 l 64 535 z "},"״":{"ha":693,"x_min":64,"x_max":770,"o":"m 428 875 l 433 860 q 260 535 372 719 l 64 535 q 132 710 95 609 l 192 875 l 428 875 m 765 875 l 770 860 q 697 710 745 803 q 597 535 648 617 l 401 535 q 469 710 429 601 l 529 875 l 765 875 z "},"–":{"ha":667,"x_min":22,"x_max":652,"o":"m 61 468 l 652 468 l 611 282 l 22 282 l 61 468 z "},"—":{"ha":1333,"x_min":22,"x_max":1318,"o":"m 61 468 l 1318 468 l 1278 282 l 22 282 l 61 468 z "},"‘":{"ha":339,"x_min":74,"x_max":444,"o":"m 81 652 l 74 667 q 249 991 143 824 l 444 991 q 406 897 423 941 q 317 652 389 852 l 81 652 z "},"’":{"ha":339,"x_min":64,"x_max":433,"o":"m 64 652 q 192 991 106 753 l 428 991 l 433 977 q 260 652 372 836 l 64 652 z "},"‚":{"ha":421,"x_min":-71,"x_max":298,"o":"m -71 -179 q 57 161 -41 -112 l 293 161 l 298 146 q 125 -179 235 -5 l -71 -179 z "},"“":{"ha":676,"x_min":74,"x_max":781,"o":"m 81 652 l 74 667 q 249 991 143 824 l 444 991 q 406 897 423 941 q 317 652 389 852 l 81 652 m 416 652 l 411 667 q 585 991 486 836 l 781 991 q 713 817 749 918 l 653 652 l 416 652 z "},"”":{"ha":676,"x_min":64,"x_max":770,"o":"m 428 991 l 433 977 q 260 652 372 836 l 64 652 q 132 827 95 726 l 192 991 l 428 991 m 765 991 l 770 977 q 697 827 745 920 q 597 652 648 734 l 401 652 q 469 827 429 718 l 529 991 l 765 991 z "},"„":{"ha":761,"x_min":-71,"x_max":639,"o":"m -71 -179 q 57 161 -41 -112 l 293 161 l 298 146 q 125 -179 235 -5 l -71 -179 m 633 161 l 639 146 q 554 -25 605 69 q 464 -179 503 -119 l 269 -179 q 369 83 311 -79 l 397 161 l 633 161 z "},"†":{"ha":753,"x_min":123,"x_max":739,"o":"m 486 619 l 390 0 l 164 0 l 330 616 l 123 599 l 165 793 l 367 775 l 389 1055 l 615 1055 l 519 775 l 570 779 q 739 793 684 787 l 696 599 l 486 619 z "},"‡":{"ha":753,"x_min":32,"x_max":742,"o":"m 496 533 l 439 411 q 551 421 515 420 q 657 429 588 422 l 616 235 l 406 253 l 397 125 l 387 0 l 161 0 l 252 253 l 115 243 l 32 235 l 74 429 l 285 411 l 281 533 l 336 644 l 117 627 l 157 821 l 368 803 l 386 1055 l 612 1055 l 522 803 l 633 811 l 742 821 l 700 627 l 490 644 l 496 533 z "},"•":{"ha":545,"x_min":58,"x_max":517,"o":"m 58 471 q 130 670 58 589 q 309 750 201 750 q 317 750 313 750 q 467 698 416 750 q 517 546 517 646 q 448 339 517 414 q 257 264 380 264 q 111 318 164 264 q 58 467 58 372 q 58 471 58 469 z "},"…":{"ha":1221,"x_min":8,"x_max":1092,"o":"m 8 86 q 52 202 8 160 q 174 244 96 244 q 263 217 231 244 q 296 139 296 189 q 255 21 296 59 q 126 -17 214 -17 q 40 9 71 -17 q 8 86 8 35 m 407 86 q 451 202 407 160 q 572 244 495 244 q 662 217 630 244 q 694 139 694 189 q 653 21 694 59 q 525 -17 612 -17 q 438 9 470 -17 q 407 86 407 35 m 804 86 q 848 202 804 160 q 970 244 892 244 q 1060 217 1027 244 q 1092 139 1092 189 q 1051 21 1092 59 q 922 -17 1010 -17 q 836 9 867 -17 q 804 86 804 35 z "},"‰":{"ha":1829,"x_min":54,"x_max":1789,"o":"m 357 1006 q 514 948 456 1006 q 571 783 571 890 q 532 582 571 675 q 425 435 494 488 q 269 383 356 383 q 109 439 163 383 q 54 602 54 495 q 54 607 54 604 q 136 894 54 782 q 351 1006 218 1006 q 357 1006 353 1006 m 372 0 l 171 0 l 909 991 l 1105 991 l 372 0 m 338 842 q 278 767 304 842 q 252 604 252 692 q 288 547 252 547 q 348 623 322 547 q 374 785 374 698 q 366 828 374 814 q 338 842 357 842 m 1019 608 q 1176 551 1119 608 q 1234 386 1234 493 q 1196 185 1234 279 q 1088 39 1158 91 q 932 -14 1019 -14 q 771 42 825 -14 q 717 204 717 98 q 717 210 717 207 q 799 496 717 385 q 1013 608 880 608 q 1019 608 1016 608 m 1575 608 q 1732 551 1674 608 q 1789 386 1789 493 q 1751 185 1789 279 q 1644 39 1713 91 q 1487 -14 1575 -14 q 1326 42 1380 -14 q 1272 204 1272 98 q 1272 210 1272 207 q 1354 496 1272 385 q 1569 608 1436 608 q 1575 608 1571 608 m 1000 444 q 940 369 966 444 q 914 207 914 294 q 950 150 914 150 q 1010 225 985 150 q 1036 387 1036 300 q 1028 431 1036 418 q 1000 444 1020 444 m 1556 444 q 1496 369 1522 444 q 1470 207 1470 294 q 1506 150 1470 150 q 1566 225 1540 150 q 1592 387 1592 300 q 1584 431 1592 418 q 1556 444 1575 444 z "},"‹":{"ha":488,"x_min":41,"x_max":497,"o":"m 318 733 l 497 595 l 317 368 l 392 144 l 165 52 l 41 375 l 41 382 l 318 733 z "},"›":{"ha":488,"x_min":-9,"x_max":446,"o":"m 170 29 l -9 168 l 171 395 l 96 618 l 321 711 l 446 387 l 446 380 l 170 29 z "},"⁄":{"ha":168,"x_min":-382,"x_max":554,"o":"m -180 0 l -382 0 l 357 991 l 554 991 l -180 0 z "},"₪":{"ha":1412,"x_min":-2,"x_max":1424,"o":"m 620 878 q 921 817 826 878 q 971 774 952 796 q 1021 627 1021 720 q 1004 492 1021 574 l 973 345 l 746 345 l 774 480 q 785 562 785 534 q 778 610 785 590 q 758 643 771 629 q 721 663 745 656 q 604 675 681 675 l 404 675 l 260 0 l -2 0 l 185 878 l 620 878 m 661 0 l 349 0 l 469 565 l 703 565 l 627 203 l 705 203 q 978 292 888 203 q 1052 400 1024 338 q 1099 551 1080 463 l 1169 878 l 1424 878 l 1352 539 q 1298 369 1332 447 q 1206 221 1263 291 q 1074 104 1149 152 q 893 28 999 56 q 661 0 788 0 z "},"€":{"ha":806,"x_min":36,"x_max":868,"o":"m 614 799 q 465 667 517 799 l 667 667 l 636 528 l 427 528 q 410 444 415 490 l 576 444 l 547 306 l 393 306 q 412 229 393 251 q 484 208 431 208 q 682 254 566 208 l 682 31 q 440 -14 596 -14 q 210 64 285 -14 q 131 306 135 141 l 36 306 l 65 444 l 139 444 l 154 528 l 82 528 l 114 667 l 193 667 q 358 920 250 832 q 614 1008 467 1008 q 753 991 693 1008 q 868 937 812 973 l 764 746 q 614 799 682 799 z "},"™":{"ha":1069,"x_min":69,"x_max":1059,"o":"m 184 503 l 184 872 l 69 872 l 69 991 l 433 991 l 433 872 l 318 872 l 318 503 l 184 503 m 612 774 l 612 503 l 482 503 l 482 991 l 676 991 l 770 667 l 871 991 l 1059 991 l 1059 503 l 926 503 l 926 774 q 930 848 926 824 l 925 848 l 822 503 l 711 503 l 614 848 l 608 848 q 612 774 612 805 z "},"∫":{"ha":596,"x_min":-20,"x_max":595,"o":"m 149 -46 l 149 791 q 221 988 149 921 q 432 1055 294 1055 q 595 1018 521 1055 l 595 803 q 477 836 509 836 q 432 820 446 836 q 418 766 418 804 l 418 -69 q 347 -266 418 -199 q 139 -334 276 -334 q -20 -296 53 -334 l -20 -81 q 88 -114 54 -114 q 135 -97 122 -114 q 149 -46 149 -81 z "},"≠":{"ha":786,"x_min":49,"x_max":737,"o":"m 49 243 l 49 427 l 262 427 l 321 553 l 49 553 l 49 734 l 406 734 l 479 895 l 647 823 l 604 734 l 737 734 l 737 553 l 521 553 l 463 427 l 737 427 l 737 243 l 378 243 l 306 87 l 138 157 l 178 243 l 49 243 z "},"≤":{"ha":786,"x_min":56,"x_max":720,"o":"m 58 497 l 58 614 l 720 958 l 720 755 l 329 564 l 720 395 l 720 193 l 58 497 m 56 183 l 717 183 l 717 0 l 56 0 l 56 183 z "},"≥":{"ha":786,"x_min":77,"x_max":737,"o":"m 467 564 l 77 757 l 77 958 l 737 614 l 737 497 l 77 193 l 77 395 l 467 564 m 77 183 l 737 183 l 737 0 l 77 0 l 77 183 z "},"ﬁ":{"ha":1021,"x_min":-142,"x_max":1061,"o":"m 779 937 q 819 1043 779 1006 q 927 1079 859 1079 q 1028 1054 994 1079 q 1061 983 1061 1029 q 1022 879 1061 916 q 909 842 982 842 q 779 937 779 842 m -1 -334 q -142 -315 -76 -334 l -142 -110 q -56 -122 -99 -122 q 14 -102 -12 -122 q 49 -37 39 -82 l 178 571 l 65 571 l 94 700 l 222 765 l 233 815 q 332 1003 262 944 q 516 1063 401 1063 q 711 1023 631 1063 l 644 844 q 554 865 602 865 q 494 817 506 865 l 484 768 l 627 768 l 582 571 l 440 571 l 301 -79 q 197 -271 272 -209 q -1 -334 123 -334 m 585 0 l 747 768 l 1011 768 l 848 0 l 585 0 z "},"ﬂ":{"ha":1021,"x_min":-142,"x_max":1071,"o":"m -1 -334 q -142 -315 -76 -334 l -142 -110 q -56 -122 -99 -122 q 14 -102 -12 -122 q 49 -37 39 -82 l 178 571 l 65 571 l 94 700 l 222 765 l 233 815 q 332 1003 262 944 q 516 1063 401 1063 q 711 1023 631 1063 l 644 844 q 554 865 602 865 q 494 817 506 865 l 484 768 l 627 768 l 582 571 l 440 571 l 301 -79 q 197 -271 272 -209 q -1 -334 123 -334 m 808 1055 l 1071 1055 l 848 0 l 585 0 l 808 1055 z "},"שׁ":{"ha":1096,"x_min":39,"x_max":1180,"o":"m 1076 1044 q 1126 1059 1097 1059 q 1168 1045 1156 1059 q 1180 1019 1180 1031 q 1152 958 1180 979 q 1101 942 1131 942 q 1060 955 1072 942 q 1048 980 1048 968 q 1076 1044 1048 1023 m 424 0 l 39 0 l 152 878 l 408 878 l 355 470 q 418 517 390 470 q 437 562 429 536 l 532 878 l 785 878 l 692 566 q 544 342 647 413 q 429 292 491 307 q 341 283 386 283 l 330 283 l 321 203 l 498 203 q 653 270 583 203 q 767 484 723 336 l 885 878 l 1141 878 l 1019 477 q 810 123 947 239 q 526 5 693 24 q 424 0 478 0 z "},"שׂ":{"ha":1096,"x_min":39,"x_max":1141,"o":"m 168 1044 q 217 1059 188 1059 q 259 1045 247 1059 q 271 1019 271 1031 q 243 958 271 979 q 193 942 222 942 q 151 955 163 942 q 140 980 140 968 q 168 1044 140 1023 m 424 0 l 39 0 l 152 878 l 408 878 l 355 470 q 418 517 390 470 q 437 562 429 536 l 532 878 l 785 878 l 692 566 q 544 342 647 413 q 429 292 491 307 q 341 283 386 283 l 330 283 l 321 203 l 498 203 q 653 270 583 203 q 767 484 723 336 l 885 878 l 1141 878 l 1019 477 q 810 123 947 239 q 526 5 693 24 q 424 0 478 0 z "},"שּׁ":{"ha":1096,"x_min":39,"x_max":1141,"o":"m 951 1044 q 1001 1059 972 1059 q 1043 1045 1031 1059 q 1055 1019 1055 1031 q 1027 958 1055 979 q 977 942 1006 942 q 935 955 947 942 q 924 980 924 968 q 951 1044 924 1023 m 424 0 l 39 0 l 152 878 l 408 878 l 355 470 q 418 517 390 470 q 437 562 429 536 l 532 878 l 785 878 l 692 566 q 544 342 647 413 q 429 292 491 307 q 341 283 386 283 l 330 283 l 321 203 l 498 203 q 653 270 583 203 q 767 484 723 336 l 885 878 l 1141 878 l 1019 477 q 810 123 947 239 q 526 5 693 24 q 424 0 478 0 m 578 254 q 543 283 543 254 q 559 321 543 309 q 596 334 576 334 q 625 325 616 334 q 633 307 633 315 q 616 267 633 279 q 578 254 599 254 z "},"שּׂ":{"ha":1096,"x_min":39,"x_max":1141,"o":"m 168 1044 q 217 1059 188 1059 q 259 1045 247 1059 q 271 1019 271 1031 q 243 958 271 979 q 193 942 222 942 q 151 955 163 942 q 140 980 140 968 q 168 1044 140 1023 m 424 0 l 39 0 l 152 878 l 408 878 l 355 470 q 418 517 390 470 q 437 562 429 536 l 532 878 l 785 878 l 692 566 q 544 342 647 413 q 429 292 491 307 q 341 283 386 283 l 330 283 l 321 203 l 498 203 q 653 270 583 203 q 767 484 723 336 l 885 878 l 1141 878 l 1019 477 q 810 123 947 239 q 526 5 693 24 q 424 0 478 0 m 578 254 q 543 283 543 254 q 559 321 543 309 q 596 334 576 334 q 625 325 616 334 q 633 307 633 315 q 616 267 633 279 q 578 254 599 254 z "},"אַ":{"ha":935,"x_min":-15,"x_max":947,"o":"m 947 878 l 879 559 q 802 391 857 450 q 744 344 780 367 q 663 305 709 321 q 792 0 748 103 l 498 0 l 345 396 q 316 321 328 376 l 248 0 l -15 0 l 53 319 q 74 392 62 360 q 110 460 86 424 q 271 574 159 534 q 142 878 168 818 l 435 878 l 547 581 l 589 484 q 615 557 605 508 l 684 878 l 947 878 m 473 -164 l 206 -164 l 222 -85 l 489 -85 l 473 -164 z "},"אָ":{"ha":935,"x_min":-15,"x_max":947,"o":"m 947 878 l 879 559 q 802 391 857 450 q 744 344 780 367 q 663 305 709 321 q 792 0 748 103 l 498 0 l 345 396 q 316 321 328 376 l 248 0 l -15 0 l 53 319 q 74 392 62 360 q 110 460 86 424 q 271 574 159 534 q 142 878 168 818 l 435 878 l 547 581 l 589 484 q 615 557 605 508 l 684 878 l 947 878 m 469 -165 l 377 -165 l 348 -302 l 273 -302 l 302 -165 l 210 -165 l 227 -85 l 486 -85 l 469 -165 z "},"אּ":{"ha":935,"x_min":-15,"x_max":947,"o":"m 947 878 l 879 559 q 802 391 857 450 q 744 344 780 367 q 663 305 709 321 q 792 0 748 103 l 498 0 l 345 396 q 316 321 328 376 l 248 0 l -15 0 l 53 319 q 74 392 62 360 q 110 460 86 424 q 271 574 159 534 q 142 878 168 818 l 435 878 l 547 581 l 589 484 q 615 557 605 508 l 684 878 l 947 878 m 325 153 q 375 168 345 168 q 416 154 404 168 q 429 128 429 140 q 401 66 429 88 q 350 51 380 51 q 309 64 320 51 q 297 89 297 77 q 325 153 297 132 z "},"בּ":{"ha":811,"x_min":-39,"x_max":741,"o":"m 689 827 q 724 781 712 806 q 738 732 736 756 q 739 690 739 707 q 723 569 739 644 l 645 203 l 741 203 l 697 0 l -39 0 l 4 203 l 382 203 l 457 557 q 462 599 462 580 q 351 688 462 688 q 146 677 267 688 l 104 673 l 146 874 q 427 892 233 892 q 689 827 621 892 m 222 500 q 272 515 243 515 q 314 502 302 515 q 326 475 326 488 q 298 414 326 435 q 248 398 277 398 q 206 411 218 398 q 195 436 195 424 q 222 500 195 479 z "},"גּ":{"ha":667,"x_min":-60,"x_max":627,"o":"m 214 870 q 372 892 304 892 q 481 884 441 892 q 548 864 521 877 q 591 831 574 851 q 627 720 627 789 q 613 612 627 680 l 483 0 l 286 0 l 271 123 l 259 123 q 217 79 245 106 q 163 34 189 52 q 98 1 137 16 q 31 -14 59 -14 q -60 0 -12 -14 l 12 233 q 97 222 56 222 q 227 259 171 222 q 299 372 282 295 l 347 600 q 352 637 352 621 q 309 684 352 684 q 189 669 249 684 l 170 665 l 214 870 m 156 500 q 206 515 176 515 q 248 502 235 515 q 260 475 260 488 q 232 414 260 435 q 181 398 211 398 q 140 411 151 398 q 128 436 128 424 q 156 500 128 479 z "},"דּ":{"ha":770,"x_min":71,"x_max":850,"o":"m 850 878 l 810 692 q 708 634 739 667 q 661 528 677 601 l 549 0 l 286 0 l 399 533 q 492 675 418 623 l 71 675 l 115 878 l 850 878 m 159 500 q 209 515 179 515 q 250 502 238 515 q 262 475 262 488 q 235 414 262 435 q 184 398 214 398 q 142 411 154 398 q 131 436 131 424 q 159 500 131 479 z "},"הּ":{"ha":915,"x_min":-3,"x_max":867,"o":"m 818 823 q 852 774 841 800 q 866 723 864 748 q 867 680 867 699 q 850 557 867 635 l 732 0 l 468 0 l 587 557 q 591 599 591 580 q 481 688 591 688 q 195 671 361 688 l 138 665 l 181 866 q 549 892 348 892 q 818 823 751 892 m 422 500 q 472 515 443 515 q 514 502 502 515 q 526 475 526 488 q 498 414 526 435 q 448 398 477 398 q 406 411 418 398 q 395 436 395 424 q 422 500 395 479 m -3 0 l 106 512 l 369 512 l 260 0 l -3 0 z "},"וּ":{"ha":446,"x_min":-62,"x_max":448,"o":"m -2 0 l 185 878 l 448 878 l 261 0 l -2 0 m -34 500 q 16 515 -14 515 q 58 502 45 515 q 70 475 70 488 q 42 414 70 435 q -9 398 21 398 q -50 411 -39 398 q -62 436 -62 424 q -34 500 -62 479 z "},"זּ":{"ha":496,"x_min":-59,"x_max":574,"o":"m 574 878 l 533 689 q 458 620 493 662 q 403 540 424 577 q 368 458 382 503 q 326 302 345 389 l 262 0 l -1 0 l 63 302 q 287 675 117 555 l 113 675 l 156 878 l 574 878 m -31 500 q 19 515 -11 515 q 60 502 48 515 q 73 475 73 488 q 45 414 73 435 q -6 398 24 398 q -47 411 -36 398 q -59 436 -59 424 q -31 500 -59 479 z "},"טּ":{"ha":916,"x_min":75,"x_max":886,"o":"m 538 883 q 649 892 597 892 q 747 879 701 892 q 875 755 848 852 q 886 659 886 715 q 861 451 886 574 q 685 109 814 231 q 368 -13 557 -13 q 189 42 262 -13 q 88 201 116 98 q 75 312 75 250 q 91 451 75 374 l 182 878 l 446 878 l 355 451 q 338 317 338 372 q 419 197 338 197 q 524 257 481 197 q 596 451 568 317 q 614 575 614 535 q 608 633 614 614 q 528 684 593 684 l 494 680 l 538 883 m 435 500 q 485 515 456 515 q 527 502 515 515 q 539 475 539 488 q 511 414 539 435 q 460 398 490 398 q 419 411 431 398 q 408 436 408 424 q 435 500 408 479 z "},"יּ":{"ha":431,"x_min":-35,"x_max":441,"o":"m 169 284 l 52 284 l 178 878 l 441 878 l 354 469 l 169 284 m -7 671 q 42 686 13 686 q 84 672 72 686 q 96 646 96 659 q 68 585 96 606 q 18 569 47 569 q -24 582 -12 569 q -35 607 -35 595 q -7 671 -35 650 z "},"ךּ":{"ha":751,"x_min":72,"x_max":694,"o":"m 395 892 q 607 833 536 892 q 690 686 676 775 q 694 630 694 653 q 680 494 694 564 l 505 -334 l 242 -334 l 418 496 q 429 569 429 547 q 426 612 429 591 q 408 650 422 634 q 294 687 376 687 q 106 678 206 687 l 72 675 l 116 881 q 395 892 233 892 m 162 500 q 212 515 182 515 q 254 502 241 515 q 266 475 266 488 q 238 414 266 435 q 187 398 217 398 q 146 411 157 398 q 134 436 134 424 q 162 500 134 479 z "},"כּ":{"ha":749,"x_min":-47,"x_max":718,"o":"m 418 892 q 630 833 560 892 q 713 686 701 774 q 718 630 718 653 q 704 494 718 564 l 680 383 q 647 265 667 318 q 591 158 627 212 q 508 68 555 104 q 388 9 460 32 q 225 -14 315 -14 q -47 5 47 -14 l -4 210 q 245 198 99 198 q 358 247 318 198 q 417 383 399 296 l 441 496 q 452 568 452 546 q 449 612 452 591 q 431 650 445 634 q 389 676 417 666 q 317 687 360 687 q 129 678 229 687 l 95 675 l 138 881 q 418 892 256 892 m 205 500 q 255 515 225 515 q 296 502 284 515 q 309 475 309 488 q 281 414 309 435 q 230 398 260 398 q 189 411 200 398 q 177 436 177 424 q 205 500 177 479 z "},"לּ":{"ha":767,"x_min":87,"x_max":836,"o":"m 836 878 l 802 718 l 603 326 l 604 327 l 460 0 l 201 0 l 349 336 l 523 675 l 87 675 l 168 1052 l 431 1052 l 393 878 l 836 878 m 177 500 q 227 515 197 515 q 269 502 256 515 q 281 475 281 488 q 253 414 281 435 q 202 398 232 398 q 161 411 172 398 q 149 436 149 424 q 177 500 149 479 z "},"מּ":{"ha":966,"x_min":-37,"x_max":910,"o":"m 394 878 q 405 789 409 838 l 414 789 q 594 880 491 854 q 694 892 638 892 q 797 872 750 892 q 869 818 844 852 q 910 661 910 763 q 888 494 910 593 l 783 0 l 359 0 l 402 203 l 559 203 l 621 494 q 632 627 641 593 q 593 677 622 666 q 545 683 576 683 q 476 660 514 683 q 419 615 438 637 l 399 593 l 222 0 l -37 0 l 132 555 q 171 781 171 672 q 163 878 171 829 l 394 878 m 448 500 q 498 515 469 515 q 540 502 528 515 q 552 475 552 488 q 524 414 552 435 q 473 398 503 398 q 432 411 444 398 q 420 436 420 424 q 448 500 420 479 z "},"נּ":{"ha":614,"x_min":-46,"x_max":570,"o":"m 180 881 q 320 892 237 892 q 451 876 404 892 q 524 834 498 861 q 570 699 570 787 q 558 599 570 656 l 489 275 q 453 142 475 211 q 416 37 431 73 l 400 0 l -46 0 l -3 203 l 203 203 q 226 275 218 236 l 295 599 q 298 638 298 620 q 284 670 297 657 q 250 684 272 684 q 155 677 204 684 l 136 675 l 180 881 m 99 500 q 149 515 119 515 q 191 502 178 515 q 203 475 203 488 q 175 414 203 435 q 124 398 154 398 q 83 411 94 398 q 71 436 71 424 q 99 500 71 479 z "},"סּ":{"ha":887,"x_min":41,"x_max":846,"o":"m 160 876 q 539 892 355 892 q 798 773 722 892 q 846 586 846 699 q 829 439 846 519 q 655 106 783 226 q 345 -13 527 -13 q 87 105 162 -13 q 41 289 41 178 q 58 439 41 357 q 189 673 90 584 l 116 669 l 160 876 m 579 571 q 496 688 579 688 l 443 685 q 325 439 356 590 q 308 309 308 361 q 392 196 308 196 q 495 255 454 196 q 562 439 536 314 q 579 571 579 517 m 410 500 q 459 515 430 515 q 501 502 489 515 q 513 475 513 488 q 486 414 513 435 q 435 398 465 398 q 393 411 405 398 q 382 436 382 424 q 410 500 382 479 z "},"ףּ":{"ha":888,"x_min":53,"x_max":822,"o":"m 76 386 q 58 434 64 408 q 53 476 53 459 q 53 514 53 494 q 62 575 54 534 q 113 702 77 646 q 194 793 149 758 q 296 850 239 828 q 515 892 397 892 q 727 833 650 892 q 779 776 755 811 q 822 597 822 708 q 804 439 822 525 l 640 -334 l 373 -334 l 537 439 q 559 591 559 541 q 543 653 559 627 q 470 682 526 682 q 412 673 438 682 q 372 652 387 664 q 348 625 358 641 q 330 582 335 604 q 327 547 327 562 q 333 521 327 532 q 346 502 340 509 q 361 489 352 494 q 391 477 377 480 l 444 466 l 362 279 l 297 281 q 76 386 130 287 m 405 631 q 455 647 425 647 q 496 633 484 647 q 509 607 509 619 q 481 545 509 567 q 430 530 460 530 q 389 543 400 530 q 377 568 377 555 q 405 631 377 610 z "},"פּ":{"ha":887,"x_min":42,"x_max":847,"o":"m 83 434 q 78 477 78 460 q 78 514 78 494 q 87 575 79 534 q 138 702 102 646 q 219 793 174 758 q 320 850 264 828 q 540 892 422 892 q 752 833 675 892 q 803 776 781 811 q 847 597 847 708 q 826 427 847 525 q 767 248 806 330 q 684 117 729 166 q 582 38 640 68 q 468 -3 524 7 q 337 -14 413 -14 q 186 -9 262 -14 q 76 1 110 -4 l 42 6 l 85 205 q 391 190 236 190 q 480 229 447 190 q 509 270 497 249 q 532 323 522 290 q 548 379 542 356 q 562 439 553 403 q 583 583 583 535 q 568 645 583 613 q 495 682 552 682 q 426 670 456 682 q 382 638 397 657 q 355 582 359 606 q 362 513 345 547 q 416 477 375 488 l 469 466 l 387 277 l 321 281 q 128 350 186 290 q 83 434 94 385 m 434 617 q 484 633 454 633 q 526 619 513 633 q 538 593 538 605 q 510 532 538 553 q 459 515 489 515 q 418 528 429 515 q 406 553 406 541 q 434 617 406 596 z "},"צּ":{"ha":886,"x_min":-43,"x_max":931,"o":"m 931 878 l 877 701 q 814 542 846 598 q 726 418 766 458 q 648 347 686 377 l 771 149 l 739 0 l -43 0 l 1 203 l 357 203 l 453 197 l 335 397 l 124 878 l 414 878 l 553 540 q 609 676 585 596 l 669 878 l 931 878 m 124 401 q 174 417 144 417 q 216 403 203 417 q 228 377 228 389 q 200 316 228 337 q 149 300 179 300 q 108 313 119 300 q 96 338 96 326 q 124 401 96 380 z "},"קּ":{"ha":941,"x_min":-71,"x_max":1009,"o":"m 977 726 l 754 349 q 623 41 650 171 l 614 0 l 353 0 l 361 41 q 410 190 372 94 q 488 355 448 286 l 677 675 l 143 675 l 186 878 l 1009 878 l 977 726 m -71 -334 l 112 529 l 375 529 l 192 -334 l -71 -334 m 407 500 q 457 515 427 515 q 498 502 486 515 q 511 475 511 488 q 483 414 511 435 q 432 398 462 398 q 391 411 402 398 q 379 436 379 424 q 407 500 379 479 z "},"רּ":{"ha":764,"x_min":83,"x_max":715,"o":"m 126 878 q 368 892 267 892 q 520 884 468 892 q 608 861 572 876 q 666 824 644 847 q 701 774 689 800 q 714 723 712 748 q 715 680 715 699 q 699 557 715 635 l 580 0 l 317 0 l 435 557 q 440 599 440 580 q 330 688 440 688 q 83 673 231 688 l 126 878 m 209 500 q 259 515 229 515 q 300 502 288 515 q 313 475 313 488 q 285 414 313 435 q 234 398 264 398 q 193 411 204 398 q 181 436 181 424 q 209 500 181 479 z "},"שּ":{"ha":1096,"x_min":39,"x_max":1141,"o":"m 424 0 l 39 0 l 152 878 l 408 878 l 355 470 q 418 517 390 470 q 437 562 429 536 l 532 878 l 785 878 l 692 566 q 544 342 647 413 q 429 292 491 307 q 341 283 386 283 l 330 283 l 321 203 l 498 203 q 653 270 583 203 q 767 484 723 336 l 885 878 l 1141 878 l 1019 477 q 810 123 947 239 q 526 5 693 24 q 424 0 478 0 m 578 254 q 543 283 543 254 q 559 321 543 309 q 596 334 576 334 q 625 325 616 334 q 633 307 633 315 q 616 267 633 279 q 578 254 599 254 z "},"תּ":{"ha":975,"x_min":-56,"x_max":930,"o":"m 612 891 q 901 806 844 891 q 930 697 930 760 q 913 568 930 635 l 793 0 l 529 0 l 648 557 q 652 598 652 579 q 543 688 652 688 q 495 687 509 688 l 406 268 q 379 178 395 218 q 337 101 363 138 q 273 40 310 64 q 62 -13 194 -13 q 2 -6 32 -13 q -42 8 -27 1 l -56 16 l -16 205 q 68 195 33 195 q 119 212 104 195 q 142 268 134 229 l 229 671 l 133 664 l 176 866 q 612 891 409 891 m 494 493 q 544 509 514 509 q 585 495 573 509 q 597 469 597 481 q 570 407 597 429 q 519 391 549 391 q 477 404 489 391 q 466 429 466 417 q 494 493 466 472 z "},"וֹ":{"ha":446,"x_min":-2,"x_max":448,"o":"m 233 1044 q 282 1059 253 1059 q 324 1045 312 1059 q 336 1019 336 1031 q 309 958 336 979 q 258 942 288 942 q 216 955 228 942 q 205 980 205 968 q 233 1044 205 1023 m -2 0 l 185 878 l 448 878 l 261 0 l -2 0 z "}," ":{"ha":361,"x_min":0,"x_max":0,"o":""}}}
